<svg
 xmlns="http://www.w3.org/2000/svg"
 xmlns:xlink="http://www.w3.org/1999/xlink"
 width="8px" height="16px">
<path fill-rule="evenodd"  fill="rgb(3, 124, 255)"
 d="M6.146,7.268 C5.540,6.921 4.897,6.656 4.258,6.382 C3.889,6.223 3.535,6.038 3.222,5.781 C2.607,5.272 2.725,4.446 3.445,4.118 C3.650,4.026 3.864,3.996 4.080,3.983 C4.916,3.937 5.710,4.095 6.465,4.472 C6.842,4.660 6.966,4.601 7.094,4.194 C7.228,3.765 7.339,3.329 7.463,2.896 C7.546,2.605 7.444,2.413 7.180,2.291 C6.695,2.070 6.197,1.911 5.674,1.825 C4.992,1.716 4.992,1.713 4.989,1.002 C4.986,0.001 4.986,0.001 4.017,0.001 C3.876,0.001 3.736,-0.002 3.596,0.001 C3.142,0.014 3.066,0.097 3.053,0.570 C3.047,0.781 3.053,0.992 3.050,1.207 C3.047,1.835 3.044,1.825 2.463,2.043 C1.060,2.572 0.193,3.563 0.100,5.149 C0.017,6.554 0.726,7.502 1.839,8.193 C2.524,8.619 3.283,8.870 4.010,9.204 C4.293,9.333 4.565,9.482 4.801,9.686 C5.500,10.285 5.372,11.279 4.542,11.656 C4.099,11.858 3.631,11.907 3.149,11.844 C2.406,11.749 1.695,11.547 1.025,11.187 C0.633,10.975 0.519,11.031 0.385,11.471 C0.269,11.851 0.168,12.234 0.065,12.618 C-0.072,13.133 -0.021,13.255 0.455,13.497 C1.060,13.801 1.708,13.956 2.367,14.065 C2.884,14.151 2.900,14.174 2.906,14.729 C2.910,14.980 2.910,15.235 2.913,15.486 C2.916,15.803 3.063,15.988 3.379,15.995 C3.736,16.001 4.096,16.001 4.453,15.991 C4.746,15.985 4.897,15.820 4.897,15.512 C4.897,15.169 4.912,14.822 4.900,14.478 C4.884,14.128 5.030,13.949 5.356,13.857 C6.105,13.645 6.743,13.229 7.234,12.607 C8.598,10.889 8.079,8.375 6.146,7.268 Z"/>
</svg>