<svg
    class="m-1"
    xmlns="http://www.w3.org/2000/svg"
    xmlns:xlink="http://www.w3.org/1999/xlink"
    width="16px"
    height="16px"
    viewBox="0 0 24 24"
>
    <path
    fill-rule="evenodd"
    fill="currentColor"
    d="M12,0C5.4,0,0,5.4,0,12c0,6.6,5.4,12,12,12c2.3,0,4.6-0.7,6.6-1.9c0.6-0.4,0.7-1.2,0.3-1.7l-0.5-0.6c-0.4-0.5-1-0.6-1.5-0.2 c-1.4,0.9-3.1,1.4-4.8,1.4c-4.9,0-8.9-4-8.9-8.9s4-8.9,8.9-8.9c4.8,0,8.9,2.8,8.9,7.7c0,1.9-1,3.9-2.8,4c-0.8,0-0.8-0.6-0.7-1.5 l1.1-5.9c0.1-0.7-0.4-1.4-1.1-1.4h-2.2c-0.3,0-0.6,0.2-0.6,0.6l0,0c-0.7-0.9-2-1.1-2.9-1.1c-3.6,0-6.7,3-6.7,7.3 c0,3.2,1.8,5.1,4.6,5.1c1.3,0,2.8-0.8,3.6-1.9c0.5,1.7,2,1.7,3.4,1.7c5.3,0,7.3-3.5,7.3-7.1C24,4.2,18.7,0,12,0z M11,14.7 c-1.1,0-1.7-0.8-1.7-2c0-2.2,1.5-3.5,2.8-3.5c1.1,0,1.7,0.7,1.7,2C13.8,13.4,12.1,14.7,11,14.7L11,14.7z"
    />
</svg>