<svg
 xmlns="http://www.w3.org/2000/svg"
 xmlns:xlink="http://www.w3.org/1999/xlink"
 viewBox="0 0 200 200" xml:space="preserve">
<circle style="fill:#6DA544;" cx="100" cy="100" r="100"/>
<polygon style="fill:#FFDA44;" points="100,39.1 182.6,100 100,160.9 17.4,100 "/>
<circle style="fill:#F0F0F0;" cx="100" cy="100" r="34.8"/>
<path style="fill:#0052B4;" d="M82.6,97.8c-6,0-11.9,0.9-17.4,2.6c0.2,19,15.7,34.3,34.8,34.3c11.8,0,22.2-5.9,28.5-14.8 C117.7,106.5,101.2,97.8,82.6,97.8z"/>
<path style="fill:#0052B4;" d="M134.1,106.7c0.4-2.2,0.6-4.4,0.6-6.7c0-19.2-15.6-34.8-34.8-34.8c-14.3,0-26.6,8.7-32,21.1 c4.7-1,9.6-1.5,14.6-1.5C102.8,84.8,121.1,93.2,134.1,106.7z"/>
</svg>
