<svg xmlns="http://www.w3.org/2000/svg" xmlns:xlink="http://www.w3.org/1999/xlink" viewBox="0 0 13 13">
  <path fill-rule="evenodd" fill="currentColor" d="M6.7,5.9L2.5,1.3c-0.3-0.3-0.9-0.3-1.2,0c-0.3,0.3-0.3,0.9,0,1.3l3.7,4l-3.7,4c-0.3,0.3-0.3,0.9,0,1.3C1.4,11.9,1.6,12,1.9,12c0.2,0,0.4-0.1,0.6-0.3l4.3-4.6C7.1,6.8,7.1,6.2,6.7,5.9z M11.7,5.9L7.5,1.3c-0.3-0.3-0.9-0.3-1.2,0s-0.3,0.9,0,1.3l3.7,4l-3.7,4c-0.3,0.3-0.3,0.9,0,1.3C6.4,11.9,6.6,12,6.9,12c0.2,0,0.4-0.1,0.6-0.3l4.3-4.6C12.1,6.8,12.1,6.2,11.7,5.9z" />
</svg>
