<svg
 xmlns="http://www.w3.org/2000/svg"
 xmlns:xlink="http://www.w3.org/1999/xlink"
 width="14px" height="13px">
<path fill-rule="evenodd"  fill="rgb(70, 176, 46)"
 d="M5.048,10.055 L12.578,2.545 C13.154,1.970 13.154,1.039 12.578,0.465 C12.003,-0.110 11.068,-0.110 10.493,0.465 L2.963,7.975 L2.963,5.286 C2.963,4.474 2.303,3.815 1.489,3.815 C0.674,3.815 0.014,4.474 0.014,5.286 L0.014,11.525 C0.014,11.574 0.016,11.621 0.021,11.670 C0.022,11.681 0.024,11.693 0.026,11.705 C0.031,11.740 0.035,11.776 0.042,11.812 C0.044,11.822 0.048,11.832 0.049,11.843 C0.058,11.879 0.067,11.916 0.077,11.952 C0.079,11.959 0.082,11.966 0.085,11.973 C0.097,12.012 0.110,12.050 0.126,12.088 C0.128,12.092 0.130,12.097 0.132,12.102 C0.149,12.141 0.167,12.179 0.187,12.218 C0.190,12.222 0.193,12.227 0.196,12.232 C0.216,12.269 0.238,12.305 0.261,12.341 C0.269,12.351 0.277,12.361 0.284,12.372 C0.304,12.400 0.324,12.429 0.347,12.457 C0.378,12.495 0.411,12.531 0.446,12.566 C0.481,12.600 0.518,12.634 0.555,12.664 C0.583,12.687 0.612,12.708 0.641,12.728 C0.652,12.735 0.661,12.743 0.672,12.750 C0.707,12.774 0.744,12.796 0.782,12.816 C0.786,12.818 0.791,12.821 0.795,12.824 C0.833,12.844 0.872,12.862 0.912,12.879 C0.917,12.881 0.921,12.883 0.925,12.885 C0.963,12.901 1.002,12.914 1.040,12.926 C1.048,12.929 1.054,12.931 1.061,12.933 C1.098,12.944 1.135,12.953 1.171,12.961 C1.182,12.963 1.192,12.966 1.201,12.968 C1.238,12.975 1.273,12.980 1.310,12.985 C1.321,12.986 1.332,12.988 1.344,12.990 C1.392,12.994 1.441,12.997 1.489,12.997 L7.744,12.997 C8.152,12.997 8.520,12.832 8.787,12.566 C9.054,12.300 9.219,11.932 9.218,11.526 C9.218,10.714 8.559,10.055 7.744,10.055 L5.048,10.055 Z"/>
</svg>