<svg
 xmlns="http://www.w3.org/2000/svg"
 xmlns:xlink="http://www.w3.org/1999/xlink"
 width="14px" height="13px">
<path fill-rule="evenodd"  fill="rgb(239, 25, 45)"
 d="M7.962,2.958 L0.450,10.505 C-0.124,11.082 -0.124,12.018 0.450,12.595 C1.024,13.172 1.956,13.172 2.531,12.595 L10.042,5.048 L10.042,7.751 C10.042,8.566 10.701,9.228 11.513,9.228 C12.325,9.229 12.984,8.567 12.984,7.751 L12.984,1.481 C12.984,1.433 12.982,1.384 12.977,1.336 C12.976,1.324 12.973,1.313 12.972,1.301 C12.967,1.265 12.963,1.229 12.956,1.193 C12.954,1.183 12.950,1.173 12.948,1.162 C12.940,1.125 12.931,1.089 12.921,1.052 C12.919,1.045 12.916,1.038 12.914,1.031 C12.901,0.993 12.888,0.954 12.872,0.916 C12.871,0.911 12.868,0.907 12.866,0.902 C12.849,0.863 12.831,0.824 12.811,0.786 C12.809,0.781 12.805,0.776 12.802,0.771 C12.783,0.734 12.761,0.697 12.737,0.662 C12.730,0.651 12.723,0.641 12.714,0.631 C12.695,0.602 12.674,0.573 12.652,0.545 C12.621,0.507 12.588,0.471 12.553,0.435 C12.518,0.401 12.482,0.367 12.444,0.337 C12.417,0.313 12.387,0.293 12.358,0.272 C12.348,0.265 12.338,0.257 12.328,0.250 C12.292,0.226 12.256,0.205 12.218,0.184 C12.214,0.182 12.209,0.179 12.204,0.176 C12.167,0.156 12.128,0.138 12.088,0.121 C12.084,0.119 12.079,0.116 12.074,0.115 C12.037,0.099 11.999,0.086 11.959,0.073 C11.953,0.071 11.946,0.068 11.939,0.066 C11.902,0.055 11.866,0.046 11.829,0.039 C11.819,0.036 11.809,0.033 11.799,0.031 C11.763,0.024 11.727,0.019 11.691,0.015 C11.680,0.013 11.668,0.011 11.656,0.010 C11.609,0.005 11.561,0.003 11.513,0.003 L5.272,0.003 C4.866,0.002 4.499,0.168 4.232,0.435 C3.966,0.703 3.801,1.072 3.801,1.480 C3.801,2.297 4.460,2.958 5.272,2.958 L7.962,2.958 Z"/>
</svg>