<svg
 xmlns="http://www.w3.org/2000/svg"
 xmlns:xlink="http://www.w3.org/1999/xlink"
 width="16px" height="16px">
  <path fill="currentColor" fill-rule="evenodd" d="M11.13043,8.48694L9.04346,7.30432V4.52173c0-0.55652-0.48694-1.04346-1.04346-1.04346
    S6.95654,3.96521,6.95654,4.52173v2.78259c0,0.20874,0.06952,0.41742,0.20868,0.6261
    c-0.06958,0.34784,0.1391,0.76526,0.48694,0.97394l2.43481,1.3913c0.48694,0.27826,1.11304,0.1391,1.3913-0.41742
    C11.82611,9.3913,11.61737,8.7652,11.13043,8.48694z" />
  <path fill="currentColor" fill-rule="evenodd" d="M13.94781,2.64349c-0.20868-0.20874-0.41736-0.41742-0.6261-0.6261C11.93042,0.7652,10.05219,0.06958,8.17389,0
    H7.82605C5.94781,0.06958,4.06958,0.7652,2.67828,2.0174c-0.20874,0.20868-0.41742,0.41736-0.6261,0.6261
    c-1.2522,1.3913-1.94781,3.26953-2.0174,5.14783c0,0.06952,0,0.06952,0,0.06952c0,0.06958,0,0.06958,0,0.06958v0.13916
    c0,0.06958,0,0.06958,0,0.06958c0,0.06952,0,0.06952,0,0.06952c0.06958,1.8783,0.7652,3.75653,2.0174,5.14783
    c0.20868,0.20874,0.41736,0.41742,0.6261,0.6261C4.06958,15.2348,5.87823,15.93042,7.75653,16h0.06952h0.20874h0.1391h0.06958
    c1.87823-0.06958,3.68695-0.7652,5.07825-2.0174c0.20874-0.20868,0.41742-0.41736,0.6261-0.6261
    c1.2522-1.3913,1.94781-3.20001,2.0174-5.07825c0-0.06958,0-0.06958,0-0.06958c0-0.06952,0-0.06952,0-0.06952
    c0-0.06958,0-0.06958,0-0.06958V7.93042c0-0.06958,0-0.06958,0-0.06958c0-0.06952,0-0.06952,0-0.06952
    c0-0.06958,0-0.06958,0-0.06958C15.89563,5.84351,15.20001,4.03479,13.94781,2.64349z M7.96521,13.91302
    c-3.26959,0-5.91302-2.64343-5.91302-5.91302s2.64343-5.91302,5.91302-5.91302S13.87823,4.73041,13.87823,8
    S11.2348,13.91302,7.96521,13.91302z" />
</svg>
