<svg
 xmlns="http://www.w3.org/2000/svg"
 xmlns:xlink="http://www.w3.org/1999/xlink"
 width="10px" height="14px">
<path fill-rule="evenodd"  fill="rgb(160, 166, 200)"
 d="M9.674,8.005 C9.458,7.626 9.163,7.329 8.791,7.118 C8.533,6.968 8.161,6.828 7.673,6.703 C8.127,6.546 8.493,6.351 8.768,6.111 C9.047,5.869 9.256,5.592 9.401,5.282 C9.549,4.969 9.626,4.640 9.626,4.292 C9.626,3.814 9.487,3.375 9.209,2.973 C8.929,2.571 8.533,2.266 8.017,2.053 C7.818,1.970 7.581,1.907 7.318,1.856 L7.318,-0.003 L5.564,-0.003 L5.564,1.731 L4.433,1.731 L4.433,-0.003 L2.677,-0.003 L2.677,1.731 L-0.004,1.731 L-0.004,3.187 L0.401,3.187 C0.674,3.187 0.862,3.213 0.957,3.264 C1.052,3.314 1.123,3.382 1.164,3.469 C1.204,3.554 1.223,3.754 1.223,4.067 L1.223,9.944 C1.223,10.251 1.204,10.446 1.164,10.534 C1.123,10.622 1.053,10.689 0.957,10.741 C0.862,10.788 0.674,10.810 0.401,10.810 L-0.004,10.810 L-0.004,12.266 L2.677,12.266 L2.677,14.002 L4.433,14.002 L4.433,12.266 L5.432,12.266 C5.476,12.266 5.520,12.266 5.563,12.266 L5.563,14.002 L7.318,14.002 L7.318,12.119 C7.615,12.062 7.875,11.987 8.095,11.897 C8.702,11.651 9.171,11.292 9.502,10.822 C9.838,10.349 10.002,9.834 10.002,9.275 C10.002,8.809 9.894,8.386 9.674,8.005 ZM3.791,3.429 L4.928,3.429 C5.592,3.429 6.056,3.471 6.314,3.556 C6.569,3.637 6.768,3.777 6.903,3.973 C7.041,4.171 7.107,4.410 7.107,4.686 C7.107,4.951 7.035,5.185 6.894,5.390 C6.748,5.595 6.533,5.747 6.249,5.846 C5.963,5.948 5.524,6.000 4.929,6.000 L3.791,6.000 L3.791,3.429 L3.791,3.429 ZM7.004,9.944 C6.799,10.204 6.557,10.379 6.264,10.460 C5.977,10.543 5.612,10.585 5.171,10.585 L4.414,10.585 C4.162,10.585 4.007,10.570 3.949,10.543 C3.891,10.518 3.852,10.468 3.826,10.398 C3.809,10.341 3.794,10.153 3.791,9.827 L3.791,7.546 L5.133,7.546 C5.727,7.546 6.161,7.603 6.449,7.714 C6.734,7.825 6.952,7.988 7.092,8.206 C7.238,8.421 7.311,8.683 7.311,8.998 C7.311,9.367 7.209,9.680 7.004,9.944 Z"/>
</svg>