<svg
 xmlns="http://www.w3.org/2000/svg"
 xmlns:xlink="http://www.w3.org/1999/xlink"
 width="35px" height="38px">
<path fill-rule="evenodd"  fill="rgb(3, 124, 255)"
 d="M32.386,31.005 L19.599,37.497 C18.939,37.832 18.215,38.000 17.491,38.000 C16.767,38.000 16.043,37.832 15.383,37.497 L2.594,31.003 C0.981,30.178 -0.012,28.531 -0.001,26.703 L-0.001,11.252 C-0.000,9.424 1.001,7.784 2.613,6.971 L15.400,0.479 C16.716,-0.185 18.283,-0.185 19.595,0.477 C19.597,0.478 19.598,0.478 19.599,0.479 L32.389,6.973 C33.997,7.784 34.999,9.424 35.000,11.252 L35.000,26.724 C34.999,28.552 33.997,30.192 32.386,31.005 ZM3.024,26.707 C3.024,26.711 3.024,26.715 3.024,26.718 C3.019,27.373 3.375,27.963 3.951,28.258 L15.987,34.368 L15.987,18.306 L3.024,11.724 L3.024,26.707 ZM18.248,3.228 C18.014,3.110 17.756,3.051 17.499,3.051 C17.242,3.051 16.984,3.110 16.749,3.228 L4.902,9.243 L17.499,15.639 L30.096,9.243 L18.248,3.228 ZM31.974,11.725 L19.012,18.306 L19.012,34.360 L31.036,28.256 C31.616,27.963 31.974,27.377 31.974,26.723 L31.974,11.725 Z"/>
</svg>