<svg xmlns="http://www.w3.org/2000/svg" xmlns:xlink="http://www.w3.org/1999/xlink" viewBox="0 0 18 17">
  <path fill-rule="evenodd" fill="currentColor" d="M17.954,1.704 C17.920,2.391 17.887,3.074 17.857,3.757 C17.850,3.916 17.821,4.120 17.661,4.280 C17.617,4.325 17.565,4.362 17.506,4.395 C17.417,4.443 17.332,4.466 17.247,4.466 C17.044,4.466 16.911,4.332 16.814,4.236 L16.004,3.426 L8.843,10.613 C8.669,10.784 8.444,10.880 8.200,10.880 C7.956,10.880 7.726,10.784 7.556,10.613 L4.704,7.751 L1.719,10.747 C1.549,10.917 1.324,11.014 1.079,11.014 C0.835,11.014 0.606,10.917 0.436,10.747 L0.266,10.576 C-0.089,10.220 -0.089,9.644 0.266,9.288 L4.064,5.479 C4.235,5.308 4.460,5.212 4.704,5.212 C4.948,5.212 5.178,5.308 5.348,5.479 L8.200,8.341 L14.547,1.967 C14.362,1.786 14.177,1.600 13.996,1.414 L13.733,1.147 C13.630,1.043 13.411,0.824 13.567,0.486 C13.596,0.419 13.633,0.364 13.682,0.315 C13.833,0.163 14.025,0.156 14.166,0.148 C15.217,0.100 16.263,0.048 17.314,-0.000 C17.332,-0.000 17.354,-0.000 17.373,-0.000 C17.580,-0.000 17.743,0.059 17.850,0.174 C17.965,0.293 18.013,0.460 18.002,0.676 L17.954,1.704 ZM4.002,11.006 L4.002,16.643 C4.002,16.842 3.850,17.000 3.666,17.000 L1.337,17.000 C1.150,17.000 1.001,16.838 1.001,16.643 L1.001,13.439 C1.494,13.402 1.952,13.183 2.311,12.805 L4.002,11.006 ZM8.003,13.321 L8.003,16.645 C8.003,16.842 7.850,17.000 7.667,17.000 L5.338,17.000 C5.151,17.000 5.002,16.838 5.002,16.645 L5.002,10.999 L6.602,12.691 C6.976,13.087 7.472,13.309 8.003,13.321 ZM12.004,10.005 L12.004,16.652 C12.004,16.846 11.851,17.000 11.668,17.000 L9.338,17.000 C9.151,17.000 9.002,16.842 9.002,16.652 L9.002,13.049 C9.121,12.970 9.231,12.879 9.335,12.772 L12.004,10.005 ZM15.828,6.062 C15.870,6.101 15.928,6.160 16.004,6.227 L16.004,16.655 C16.004,16.847 15.851,17.000 15.668,17.000 L13.339,17.000 C13.152,17.000 13.003,16.843 13.003,16.655 L13.003,8.865 L15.779,6.011 L15.828,6.062 Z" />
</svg>
