<svg
 xmlns="http://www.w3.org/2000/svg"
 xmlns:xlink="http://www.w3.org/1999/xlink"
 width="13px" height="15px">
<path fill-rule="evenodd"  fill="rgb(57, 81, 116)"
 d="M-0.000,15.000 L-0.000,13.000 L13.000,13.000 L13.000,15.000 L-0.000,15.000 ZM6.822,9.887 C6.556,10.184 6.303,9.853 6.303,9.853 L3.201,5.677 C3.201,5.677 2.729,5.181 3.240,5.181 C3.752,5.181 4.989,5.181 4.989,5.181 C4.989,5.181 4.989,4.847 4.989,4.332 C4.989,2.863 4.989,1.391 4.989,0.303 C4.989,0.303 4.919,0.006 5.320,0.006 C5.723,0.006 7.491,0.006 7.781,0.006 C8.069,0.006 8.062,0.256 8.062,0.256 C8.062,1.312 8.062,2.877 8.062,4.297 C8.062,4.757 8.062,5.056 8.062,5.056 C8.062,5.056 9.054,5.056 9.676,5.056 C10.297,5.056 9.829,5.575 9.829,5.575 C9.829,5.575 7.190,9.478 6.822,9.887 Z"/>
</svg>