<?xml version="1.0" encoding="UTF-8"?>
<svg version="1.1" viewBox="0 0 21 18" xmlns="http://www.w3.org/2000/svg" xmlns:xlink="http://www.w3.org/1999/xlink">
<defs>
<rect id="a" width="21" height="18"/>
</defs>
<clipPath>
<use xlink:href="#a"/>
</clipPath>
<path fill="currentColor" d="m8.5 16.6c-1.3-0.9-2.3-2.1-2.9-3.6h-4.4c-0.6 0-1.2-0.5-1.2-1.2v-4.8c0-0.5 0.5-1 1-1h1v-2c0-1 0.3-2 0.9-2.8s1.6-1.2 2.6-1.2 2 0.4 2.6 1.2c0.4 0.6 0.7 1.2 0.8 2 3.8-2.2 8.7-1 11 2.8s1 8.7-2.8 11c-2.7 1.5-6.1 1.4-8.6-0.4zm-1.5-6.6c0 3.3 2.7 6 6 6s6-2.7 6-6-2.7-6-6-6-6 2.7-6 6zm-3-6v2h2.1c0.2-0.5 0.5-0.9 0.9-1.3v-0.7c0-1.2-0.1-2.2-1.5-2.2s-1.5 1-1.5 2.2zm9 7c-0.6 0-1-0.4-1-1v-3c0-0.6 0.4-1 1-1s1 0.4 1 1v2h2c0.6 0 1 0.4 1 1s-0.4 1-1 1h-3z"/>
</svg>
