<svg
 xmlns="http://www.w3.org/2000/svg"
 xmlns:xlink="http://www.w3.org/1999/xlink"
 width="29px" height="29px">
<path fill-rule="evenodd"  fill="rgb(255, 255, 255)"
 d="M25.989,29.004 L25.989,25.990 L29.003,25.990 L29.003,29.004 L25.989,29.004 ZM20.999,24.000 L20.999,21.000 L18.999,21.000 L18.999,29.000 L15.992,29.003 L15.992,15.991 L24.000,16.000 L24.000,19.000 L25.999,19.000 L25.999,16.000 L29.003,15.991 L29.003,15.992 L28.999,24.000 L20.999,24.000 ZM15.992,-0.004 L29.003,-0.004 L29.003,13.008 L15.992,13.008 L15.992,-0.004 ZM18.999,10.000 L25.999,10.000 L25.999,3.000 L18.999,3.000 L18.999,10.000 ZM21.010,5.015 L23.984,5.015 L23.984,7.989 L21.010,7.989 L21.010,5.015 ZM-0.004,15.992 L13.007,15.992 L13.007,29.003 L-0.004,29.003 L-0.004,15.992 ZM3.000,26.000 L9.999,26.000 L9.999,19.000 L3.000,19.000 L3.000,26.000 ZM5.015,21.010 L7.989,21.010 L7.989,23.984 L5.015,23.984 L5.015,21.010 ZM-0.004,-0.004 L13.007,-0.004 L13.007,13.008 L-0.004,13.008 L-0.004,-0.004 ZM3.000,10.000 L9.999,10.000 L9.999,3.000 L3.000,3.000 L3.000,10.000 ZM5.015,5.015 L7.989,5.015 L7.989,7.989 L5.015,7.989 L5.015,5.015 ZM23.997,29.004 L20.983,29.004 L20.983,25.990 L23.997,25.990 L23.997,29.004 Z"/>
</svg>