<svg xmlns="http://www.w3.org/2000/svg" viewBox="0 0 43 39" width="43px" height="39px"><defs><style>.cls-1{fill:#ffa407;}.cls-2{opacity:0.4;}</style></defs><title>transaction</title><path class="cls-1" d="M16.43,23.33a3.87,3.87,0,0,1-2.6.81,3.86,3.86,0,0,1-2.61-.8,3.11,3.11,0,0,1-.93-2.48V15.77h1.83v5.09a3.68,3.68,0,0,0,.06.66,1.23,1.23,0,0,0,.24.56,1.25,1.25,0,0,0,.52.4,2,2,0,0,0,.89.16,1.7,1.7,0,0,0,1.34-.43,2,2,0,0,0,.37-1.35V15.77h1.83v5.09A3.1,3.1,0,0,1,16.43,23.33Z" transform="translate(0.01)"/><path class="cls-1" d="M20.75,15.77l3.46,5.49h0V15.77h1.71V24H24.12l-3.45-5.48h0V24h-1.7V15.77Z" transform="translate(0.01)"/><path class="cls-1" d="M28.94,21.94a1.2,1.2,0,0,0,.4.46,1.72,1.72,0,0,0,.58.27,2.74,2.74,0,0,0,.7.08,3.2,3.2,0,0,0,.52,0,1.61,1.61,0,0,0,.53-.15,1.13,1.13,0,0,0,.4-.32.77.77,0,0,0,.17-.51.74.74,0,0,0-.22-.54,1.78,1.78,0,0,0-.56-.34,6.75,6.75,0,0,0-.79-.24l-.9-.23a8.57,8.57,0,0,1-.9-.28,3.14,3.14,0,0,1-.79-.43,2.13,2.13,0,0,1-.57-.66,2,2,0,0,1-.21-1A2.12,2.12,0,0,1,27.57,17a2.44,2.44,0,0,1,.72-.78,3.17,3.17,0,0,1,1-.46,4.24,4.24,0,0,1,1.11-.15,5.16,5.16,0,0,1,1.25.15,3.08,3.08,0,0,1,1.06.46,2.42,2.42,0,0,1,.74.82,2.52,2.52,0,0,1,.27,1.21H32a1.56,1.56,0,0,0-.16-.61,1,1,0,0,0-.35-.37,1.43,1.43,0,0,0-.51-.2,3,3,0,0,0-.62-.06,2.12,2.12,0,0,0-.44.05,1.09,1.09,0,0,0-.4.16,1,1,0,0,0-.3.29.73.73,0,0,0-.12.43.67.67,0,0,0,.1.39.85.85,0,0,0,.36.28,5.19,5.19,0,0,0,.76.25l1.26.32.64.17a3.19,3.19,0,0,1,.82.38,2.37,2.37,0,0,1,.7.71,2,2,0,0,1,.3,1.13,2.43,2.43,0,0,1-.22,1,2.29,2.29,0,0,1-.66.83A3.23,3.23,0,0,1,32,24a5.14,5.14,0,0,1-1.49.19A5.32,5.32,0,0,1,29.22,24a3.52,3.52,0,0,1-1.14-.53,2.51,2.51,0,0,1-.78-.9A2.7,2.7,0,0,1,27,21.24h1.77A1.48,1.48,0,0,0,28.94,21.94Z" transform="translate(0.01)"/><g id="Forma_1" data-name="Forma 1" class="cls-2"><g id="Forma_1-2" data-name="Forma 1"><path class="cls-1" d="M42.1,9.2a1.51,1.51,0,0,0-2,.8l-.8,2a19.34,19.34,0,0,0-18-12A19.2,19.2,0,0,0,2.4,14.9a1.49,1.49,0,1,0,2.9.7A16.22,16.22,0,0,1,21.3,3a16.27,16.27,0,0,1,15.1,9.9l-1.7-.7A1.52,1.52,0,1,0,33.5,15l5.2,2.2a1.85,1.85,0,0,0,1.2,0c.4-.1.6-.4.8-.8l2.2-5.1A1.59,1.59,0,0,0,42.1,9.2ZM39.4,22.3a1.49,1.49,0,0,0-1.8,1.1,16.39,16.39,0,0,1-16,12.7,16.2,16.2,0,0,1-15.1-10l1.8.8a1.52,1.52,0,0,0,1.2-2.8L4.3,21.9a1.51,1.51,0,0,0-2,.8L.1,27.8a1.51,1.51,0,0,0,.8,2,1.27,1.27,0,0,0,.6.1,1.5,1.5,0,0,0,1.4-1l.8-1.8A19.11,19.11,0,0,0,21.6,39,19.11,19.11,0,0,0,40.5,24.1,1.49,1.49,0,0,0,39.4,22.3Z" transform="translate(0.01)"/></g></g></svg>
