<svg xmlns="http://www.w3.org/2000/svg" viewBox="0 0 43 39" width="43px" height="39px"><defs><style>.cls-1{opacity:0.4;}.cls-2{fill:#ffa407;}</style></defs><title>transaction-unik</title><g id="Forma_1" data-name="Forma 1" class="cls-1"><g id="Forma_1-2" data-name="Forma 1-2"><path class="cls-2" d="M42.11,9.2a1.51,1.51,0,0,0-2,.78v0l-.8,2a19.33,19.33,0,0,0-18-12A19.2,19.2,0,0,0,2.41,14.9a1.49,1.49,0,1,0,2.9.7A16.22,16.22,0,0,1,21.31,3a16.27,16.27,0,0,1,15.1,9.9l-1.7-.7a1.52,1.52,0,1,0-1.2,2.8h0l5.2,2.2a1.89,1.89,0,0,0,1.2,0c.4-.1.6-.4.8-.8l2.2-5.1A1.59,1.59,0,0,0,42.11,9.2Zm-2.7,13.1a1.49,1.49,0,0,0-1.8,1.1h0a16.39,16.39,0,0,1-16,12.7,16.21,16.21,0,0,1-15.1-10l1.8.8a1.52,1.52,0,0,0,1.2-2.8h0l-5.2-2.2a1.51,1.51,0,0,0-2,.78v0L.11,27.8a1.51,1.51,0,0,0,.78,2h0a1.23,1.23,0,0,0,.6.1,1.51,1.51,0,0,0,1.4-1l.8-1.8A19.13,19.13,0,0,0,21.61,39a19.11,19.11,0,0,0,18.9-14.9,1.49,1.49,0,0,0-1.1-1.8Z" transform="translate(0.02 0)"/></g></g><path class="cls-2" d="M12.32,28.27V10.73h2.73v14.8h7.68V15.7h2.73V28.26H12.32Zm15.62,0V13.47H20.26V23.3H17.53V10.74H30.68V28.27Z" transform="translate(0.02 0)"/></svg>