<svg xmlns="http://www.w3.org/2000/svg" xmlns:xlink="http://www.w3.org/1999/xlink" viewBox="0 0 19 17">
  <path fill="#037cff" d="M12.63043,8.98694l-2.08698-1.18262V5.02173c0-0.55652-0.48694-1.04346-1.04346-1.04346
    S8.45654,4.46521,8.45654,5.02173v2.78259c0,0.20874,0.06952,0.41742,0.20868,0.6261
    c-0.06958,0.34784,0.1391,0.76526,0.48694,0.97394l2.43481,1.3913c0.48694,0.27826,1.11304,0.1391,1.3913-0.41742
    C13.32611,9.8913,13.11737,9.2652,12.63043,8.98694z" />
  <path fill="#037cff" d="M15.81955,2.80871c-0.22172-0.22179-0.44344-0.44351-0.66523-0.66523
    C13.67607,0.81302,11.68045,0.07393,9.68476,0H9.31518c-1.99562,0.07393-3.99125,0.81302-5.4695,2.14348
    C3.62389,2.3652,3.40217,2.58693,3.18045,2.80871C1.84999,4.28696,1.11089,6.28259,1.03696,8.27828c0,0.07386,0,0.07386,0,0.07386
    c0,0.07393,0,0.07393,0,0.07393v0.14786c0,0.07393,0,0.07393,0,0.07393c0,0.07386,0,0.07386,0,0.07386
    c0.07393,1.99569,0.81302,3.99131,2.14348,5.46957c0.22172,0.22179,0.44344,0.44351,0.66523,0.66523
    C5.32393,16.18698,7.24562,16.92607,9.24131,17h0.07386h0.22179h0.14779h0.07393c1.99562-0.07393,3.91739-0.81302,5.39564-2.14348
    c0.22179-0.22172,0.44351-0.44344,0.66523-0.66523c1.33046-1.47825,2.06955-3.40001,2.14348-5.39564c0-0.07393,0-0.07393,0-0.07393
    c0-0.07386,0-0.07386,0-0.07386c0-0.07393,0-0.07393,0-0.07393V8.42607c0-0.07393,0-0.07393,0-0.07393
    c0-0.07386,0-0.07386,0-0.07386c0-0.07393,0-0.07393,0-0.07393C17.88911,6.20872,17.15001,4.28696,15.81955,2.80871z
     M9.46304,14.78259c-3.47394,0-6.28259-2.80865-6.28259-6.28259s2.80865-6.28259,6.28259-6.28259S15.74562,5.02606,15.74562,8.5
    S12.93698,14.78259,9.46304,14.78259z" />
</svg>
