<svg
 xmlns="http://www.w3.org/2000/svg"
 xmlns:xlink="http://www.w3.org/1999/xlink"
 width="14px" height="16px">
<path fill-rule="evenodd"  fill="rgb(41, 135, 255)"
 d="M6.999,14.000 C6.429,14.000 5.883,13.914 5.351,13.783 L2.000,16.000 L2.021,11.914 C0.773,10.648 -0.001,8.916 -0.001,7.000 C-0.001,3.135 3.135,-0.000 6.999,-0.000 C10.865,-0.000 14.000,3.135 14.000,7.000 C14.000,10.865 10.865,14.000 6.999,14.000 ZM6.999,3.000 C4.791,3.000 3.000,4.763 3.000,6.937 C3.000,8.015 3.442,8.990 4.155,9.701 L4.143,12.000 L6.058,10.753 C6.361,10.826 6.674,10.875 6.999,10.875 C9.208,10.875 11.000,9.112 11.000,6.937 C11.000,4.763 9.208,3.000 6.999,3.000 Z"/>
</svg>