<svg
 xmlns="http://www.w3.org/2000/svg"
 xmlns:xlink="http://www.w3.org/1999/xlink"
 width="16px" height="16px">
<path fill-rule="evenodd"  fill="rgb(70, 176, 46)"
 d="M8.000,16.000 C3.600,16.000 -0.000,12.400 -0.000,8.000 C-0.000,3.600 3.600,-0.000 8.000,-0.000 C12.400,-0.000 16.000,3.600 16.000,8.000 C16.000,12.400 12.400,16.000 8.000,16.000 ZM8.000,1.600 C4.480,1.600 1.600,4.480 1.600,8.000 C1.600,11.520 4.480,14.400 8.000,14.400 C11.520,14.400 14.400,11.520 14.400,8.000 C14.400,4.480 11.520,1.600 8.000,1.600 ZM7.200,8.800 L7.200,4.000 L8.400,4.000 L8.400,8.160 L12.000,10.320 L11.360,11.360 L7.200,8.800 Z"/>
</svg>