<svg
 xmlns="http://www.w3.org/2000/svg"
 xmlns:xlink="http://www.w3.org/1999/xlink"
 width="14px" height="14px">
<path fill-rule="evenodd"  fill="rgb(160, 166, 200)"
 d="M13.723,2.657 L8.885,7.484 L13.716,12.304 C14.098,12.685 14.098,13.304 13.716,13.685 C13.334,14.066 12.714,14.066 12.332,13.685 L7.501,8.865 L2.649,13.706 C2.266,14.087 1.647,14.087 1.264,13.706 C0.882,13.324 0.882,12.706 1.264,12.325 L6.116,7.484 L1.264,2.643 C0.882,2.262 0.882,1.644 1.264,1.262 C1.647,0.881 2.266,0.881 2.649,1.262 L7.501,6.103 L12.338,1.276 C12.721,0.895 13.341,0.895 13.723,1.276 C14.105,1.658 14.105,2.276 13.723,2.657 Z"/>
</svg>