<svg
 xmlns="http://www.w3.org/2000/svg"
 xmlns:xlink="http://www.w3.org/1999/xlink"
 width="6px" height="12px">
<path fill-rule="evenodd"  fill="rgb(160, 166, 200)"
 d="M0.191,6.390 L1.493,6.390 L1.493,11.806 C1.493,11.913 1.579,11.999 1.684,11.999 L3.892,11.999 C3.998,11.999 4.084,11.913 4.084,11.806 L4.084,6.416 L5.580,6.416 C5.677,6.416 5.759,6.342 5.770,6.245 L5.998,4.251 C6.004,4.196 5.987,4.141 5.950,4.100 C5.914,4.059 5.862,4.035 5.808,4.035 L4.084,4.035 L4.084,2.785 C4.084,2.409 4.284,2.218 4.680,2.218 C4.737,2.218 5.808,2.218 5.808,2.218 C5.913,2.218 5.999,2.131 5.999,2.024 L5.999,0.194 C5.999,0.087 5.913,0.001 5.808,0.001 L4.254,0.001 C4.243,0.000 4.219,-0.001 4.183,-0.001 C3.913,-0.001 2.976,0.053 2.237,0.741 C1.416,1.503 1.530,2.416 1.558,2.574 L1.558,4.035 L0.191,4.035 C0.085,4.035 -0.001,4.122 -0.001,4.229 L-0.001,6.197 C-0.001,6.304 0.085,6.390 0.191,6.390 Z"/>
</svg>