<svg
 xmlns="http://www.w3.org/2000/svg"
 xmlns:xlink="http://www.w3.org/1999/xlink"
 width="19px" height="16px">
<path fill-rule="evenodd"  fill="rgb(160, 166, 200)"
 d="M19.000,8.909 C19.000,10.477 18.768,11.731 18.304,12.671 C18.014,13.255 17.613,13.758 17.099,14.183 C16.585,14.607 16.048,14.933 15.489,15.160 C14.929,15.388 14.282,15.568 13.547,15.700 C12.813,15.833 12.160,15.916 11.589,15.950 C11.017,15.984 10.382,16.001 9.682,16.001 C9.088,16.001 8.548,15.990 8.061,15.967 C7.573,15.945 7.012,15.897 6.376,15.825 C5.741,15.753 5.160,15.639 4.635,15.484 C4.110,15.329 3.588,15.134 3.071,14.899 C2.553,14.664 2.092,14.357 1.689,13.978 C1.285,13.599 0.958,13.163 0.707,12.671 C0.234,11.739 -0.001,10.485 -0.001,8.909 C-0.001,7.113 0.516,5.612 1.552,4.407 C1.346,3.786 1.243,3.142 1.243,2.475 C1.243,1.596 1.438,0.770 1.825,-0.003 C2.648,-0.003 3.371,0.147 3.996,0.446 C4.620,0.746 5.339,1.214 6.153,1.850 C7.272,1.585 8.449,1.452 9.682,1.452 C10.808,1.452 11.875,1.573 12.879,1.816 C13.678,1.195 14.390,0.736 15.015,0.441 C15.639,0.145 16.358,-0.003 17.172,-0.003 C17.561,0.770 17.755,1.596 17.755,2.475 C17.755,3.135 17.652,3.771 17.446,4.385 C18.482,5.597 19.000,7.105 19.000,8.909 ZM15.654,8.591 C15.129,7.954 14.417,7.636 13.519,7.636 C13.207,7.636 12.465,7.715 11.292,7.874 C10.751,7.958 10.154,7.999 9.499,7.999 C8.844,7.999 8.247,7.958 7.706,7.874 C6.549,7.715 5.807,7.636 5.479,7.636 C4.581,7.636 3.869,7.954 3.344,8.591 C2.819,9.226 2.556,10.000 2.556,10.909 C2.556,11.576 2.678,12.157 2.922,12.654 C3.165,13.150 3.474,13.540 3.847,13.825 C4.220,14.109 4.684,14.336 5.240,14.507 C5.795,14.677 6.328,14.789 6.839,14.842 C7.348,14.895 7.916,14.921 8.540,14.921 L10.459,14.921 C11.083,14.921 11.650,14.895 12.160,14.842 C12.670,14.789 13.203,14.677 13.759,14.507 C14.314,14.336 14.779,14.109 15.152,13.825 C15.525,13.540 15.833,13.150 16.076,12.654 C16.320,12.158 16.442,11.576 16.442,10.909 C16.442,10.000 16.179,9.227 15.654,8.591 ZM13.981,12.705 C13.749,12.962 13.473,13.091 13.153,13.091 C12.834,13.091 12.558,12.962 12.325,12.705 C12.093,12.447 11.929,12.159 11.834,11.841 C11.739,11.523 11.691,11.212 11.691,10.909 C11.691,10.606 11.739,10.295 11.834,9.977 C11.929,9.659 12.093,9.371 12.325,9.113 C12.558,8.856 12.834,8.727 13.153,8.727 C13.473,8.727 13.749,8.855 13.981,9.113 C14.213,9.371 14.377,9.659 14.472,9.977 C14.568,10.295 14.615,10.606 14.615,10.909 C14.615,11.212 14.568,11.523 14.472,11.841 C14.377,12.159 14.213,12.447 13.981,12.705 ZM6.673,12.705 C6.440,12.962 6.165,13.091 5.845,13.091 C5.525,13.091 5.249,12.962 5.017,12.705 C4.785,12.447 4.621,12.159 4.526,11.841 C4.431,11.523 4.383,11.212 4.383,10.909 C4.383,10.606 4.431,10.295 4.526,9.977 C4.621,9.659 4.785,9.371 5.017,9.113 C5.249,8.856 5.525,8.727 5.845,8.727 C6.165,8.727 6.440,8.855 6.673,9.113 C6.905,9.371 7.069,9.659 7.164,9.977 C7.259,10.295 7.307,10.606 7.307,10.909 C7.307,11.212 7.259,11.523 7.164,11.841 C7.069,12.159 6.905,12.447 6.673,12.705 Z"/>
</svg>