<?xml version="1.0" encoding="iso-8859-1"?>
<!DOCTYPE svg PUBLIC "-//W3C//DTD SVG 1.1//EN" "http://www.w3.org/Graphics/SVG/1.1/DTD/svg11.dtd">
<svg xmlns="http://www.w3.org/2000/svg" xmlns:xlink="http://www.w3.org/1999/xlink" version="1.1" viewBox="0 0 439.479 439.479" enable-background="new 0 0 439.479 439.479" width="512px" height="512px">
  <g>
    <path d="m407.18,60.082h-374.882c-17.81,0-32.298,14.489-32.298,32.299v226.626c0,17.81 14.488,32.299 32.298,32.299h106.252l-12.162,13.091h-18.23c-4.143,0-7.5,3.358-7.5,7.5s3.357,7.5 7.5,7.5h223.162c4.143,0 7.5-3.358 7.5-7.5s-3.357-7.5-7.5-7.5h-18.23l-12.162-13.091h106.252c17.81,0 32.299-14.489 32.299-32.299v-226.626c0-17.81-14.49-32.299-32.299-32.299zm-392.18,250.422v-209.62h409.479v209.621h-409.479zm17.298-235.423h374.882c7.24,0 13.447,4.475 16.021,10.801h-406.924c2.575-6.325 8.781-10.801 16.021-10.801zm260.318,289.314h-145.754l12.162-13.091h121.43l12.162,13.091zm114.564-28.09h-374.882c-7.24,0-13.446-4.475-16.021-10.801h406.924c-2.575,6.325-8.781,10.801-16.021,10.801z" fill="#395174"/>
    <path d="m374.171,159.137c-9.064-9.064-23.814-9.065-32.879,0-4.392,4.391-6.811,10.23-6.811,16.44 0,3.34 0.721,6.562 2.051,9.52l-59.872,47.207c-6.806-3.618-15.042-3.618-21.847,0l-59.883-47.216c3.825-8.549 2.259-18.944-4.748-25.95-9.065-9.064-23.813-9.066-32.88,0-7.006,7.007-8.573,17.401-4.748,25.95l-59.883,47.216c-8.789-4.672-19.965-3.317-27.363,4.08-9.064,9.065-9.064,23.814 0,32.879 4.533,4.532 10.486,6.799 16.439,6.799 5.954,0 11.907-2.266 16.44-6.799 7.006-7.007 8.573-17.401 4.748-25.95l59.883-47.216c3.403,1.809 7.162,2.719 10.923,2.719 3.762,0 7.521-0.91 10.924-2.719l59.883,47.216c-3.825,8.549-2.259,18.944 4.748,25.95 4.533,4.533 10.485,6.798 16.44,6.798 5.952,0 11.907-2.266 16.439-6.798 0,0 0,0 0.001,0 7.006-7.007 8.572-17.401 4.747-25.95l59.884-47.216c3.403,1.809 7.162,2.719 10.924,2.719 5.953,0 11.906-2.266 16.439-6.799 9.065-9.065 9.065-23.815 0.001-32.88zm-286.591,99.519c-3.214,3.216-8.449,3.217-11.665,0-3.217-3.217-3.217-8.45 0-11.666 1.607-1.608 3.72-2.412 5.832-2.412 2.113,0 4.226,0.804 5.833,2.412 3.217,3.216 3.217,8.45 1.42109e-14,11.666zm80.329-77.246c-3.217-3.217-3.217-8.45 0-11.666 1.607-1.608 3.72-2.412 5.832-2.412 2.113,0 4.226,0.804 5.833,2.412 3.217,3.217 3.217,8.45 0,11.666-3.213,3.216-8.448,3.217-11.665,0zm103.661,77.246c-3.217,3.217-8.452,3.216-11.667,0-3.217-3.217-3.217-8.45 0-11.666 1.607-1.608 3.72-2.412 5.833-2.412 2.112,0 4.226,0.804 5.833,2.412 3.217,3.216 3.217,8.45 0.001,11.666zm91.993-77.246c-3.215,3.216-8.449,3.216-11.666,0-1.559-1.558-2.416-3.629-2.416-5.833 0-2.203 0.857-4.275 2.417-5.833 1.607-1.608 3.72-2.412 5.833-2.412 2.112,0 4.225,0.804 5.832,2.412 3.217,3.216 3.217,8.449 0,11.666z" fill="#395174"/>
  </g>
</svg>
