<svg
 xmlns="http://www.w3.org/2000/svg"
 xmlns:xlink="http://www.w3.org/1999/xlink"
 width="17px" height="16px">
<path fill-rule="evenodd"  fill="rgb(160, 166, 200)"
 d="M17.000,7.592 C17.000,6.426 16.045,5.476 14.873,5.476 C14.218,5.476 13.617,5.767 13.214,6.266 C12.089,5.757 10.804,5.443 9.446,5.343 L10.613,1.674 L13.220,2.236 C13.419,3.008 14.125,3.582 14.964,3.582 C15.956,3.582 16.764,2.778 16.764,1.790 C16.764,0.803 15.956,-0.001 14.964,-0.001 C14.247,-0.001 13.626,0.419 13.337,1.024 L10.330,0.376 C10.023,0.310 9.716,0.486 9.621,0.784 L8.181,5.312 C6.591,5.351 5.082,5.678 3.784,6.266 C3.383,5.767 2.780,5.476 2.126,5.476 C0.953,5.476 -0.000,6.426 -0.000,7.592 C-0.000,8.159 0.223,8.691 0.621,9.086 C0.384,9.592 0.263,10.118 0.263,10.654 C0.263,12.108 1.138,13.465 2.727,14.475 C4.273,15.458 6.323,15.999 8.499,15.999 C10.676,15.999 12.725,15.458 14.272,14.475 C15.860,13.465 16.735,12.108 16.735,10.654 C16.735,10.118 16.615,9.592 16.378,9.086 C16.775,8.691 17.000,8.159 17.000,7.592 ZM0.933,8.317 C0.799,8.101 0.729,7.853 0.729,7.592 C0.729,6.826 1.355,6.202 2.126,6.202 C2.457,6.202 2.768,6.314 3.016,6.520 C2.128,7.022 1.428,7.625 0.933,8.317 ZM4.134,9.543 C4.134,8.710 4.815,8.032 5.653,8.032 C6.491,8.032 7.173,8.710 7.173,9.543 C7.173,10.376 6.491,11.054 5.653,11.054 C4.815,11.054 4.134,10.376 4.134,9.543 ZM11.616,12.992 C11.024,13.635 9.830,14.034 8.499,14.034 C7.169,14.034 5.975,13.635 5.383,12.992 C5.273,12.873 5.217,12.718 5.224,12.557 C5.231,12.396 5.301,12.247 5.420,12.138 C5.533,12.035 5.678,11.979 5.831,11.979 C6.001,11.979 6.164,12.050 6.279,12.175 C6.631,12.558 7.544,12.825 8.499,12.825 C9.454,12.825 10.367,12.558 10.720,12.175 C10.834,12.050 10.998,11.979 11.168,11.979 C11.321,11.979 11.466,12.035 11.578,12.138 C11.698,12.247 11.768,12.396 11.775,12.557 C11.782,12.718 11.725,12.873 11.616,12.992 ZM11.346,11.054 C10.508,11.054 9.826,10.376 9.826,9.543 C9.826,8.710 10.508,8.032 11.346,8.032 C12.183,8.032 12.865,8.710 12.865,9.543 C12.865,10.376 12.183,11.054 11.346,11.054 ZM16.065,8.317 C15.570,7.625 14.871,7.022 13.982,6.520 C14.231,6.314 14.542,6.202 14.873,6.202 C15.643,6.202 16.270,6.826 16.270,7.592 C16.270,7.853 16.200,8.101 16.065,8.317 Z"/>
</svg>