<svg
 xmlns="http://www.w3.org/2000/svg"
 xmlns:xlink="http://www.w3.org/1999/xlink"
 width="15px" height="15px">
<path fill-rule="evenodd"  fill="rgb(160, 166, 200)"
 d="M14.887,7.809 C14.592,7.147 13.814,6.850 13.152,7.146 L12.520,7.429 L10.900,3.807 L11.532,3.524 C12.194,3.228 12.491,2.451 12.195,1.789 C11.898,1.126 11.122,0.829 10.459,1.126 L9.827,1.409 L9.544,0.776 C9.248,0.114 8.471,-0.183 7.809,0.114 C7.147,0.410 6.850,1.186 7.146,1.849 L7.429,2.482 L3.807,4.101 L3.524,3.469 C3.228,2.806 2.451,2.511 1.789,2.806 C1.127,3.103 0.831,3.879 1.126,4.541 L1.409,5.173 L0.777,5.457 C0.115,5.753 -0.183,6.529 0.114,7.191 C0.410,7.854 1.187,8.151 1.850,7.855 L2.482,7.571 L4.101,11.194 L3.469,11.475 C2.807,11.773 2.511,12.549 2.807,13.211 C3.102,13.874 3.880,14.171 4.542,13.875 L5.174,13.592 L5.457,14.224 C5.753,14.888 6.530,15.183 7.192,14.888 C7.854,14.591 8.151,13.815 7.854,13.152 L7.572,12.519 L11.195,10.900 L11.477,11.530 C11.773,12.194 12.550,12.491 13.212,12.195 C13.874,11.899 14.172,11.122 13.875,10.460 L13.592,9.827 L14.224,9.545 C14.887,9.248 15.183,8.472 14.887,7.809 ZM6.500,10.121 L4.880,6.499 L8.502,4.879 L10.122,8.501 L6.500,10.121 Z"/>
</svg>