<svg
 xmlns="http://www.w3.org/2000/svg"
 xmlns:xlink="http://www.w3.org/1999/xlink"
 width="14px" height="13px">
<path fill-rule="evenodd"  fill="rgb(160, 166, 200)"
 d="M0.247,5.753 L3.472,6.939 L4.722,10.892 C4.801,11.145 5.116,11.239 5.324,11.071 L7.123,9.628 C7.311,9.476 7.580,9.469 7.777,9.610 L11.020,11.928 C11.243,12.088 11.560,11.967 11.615,11.701 L13.991,0.450 C14.052,0.160 13.763,-0.082 13.482,0.025 L0.243,5.053 C-0.084,5.177 -0.081,5.632 0.247,5.753 ZM4.520,6.308 L10.825,2.485 C10.938,2.416 11.054,2.567 10.957,2.656 L5.754,7.418 C5.571,7.585 5.453,7.809 5.420,8.053 L5.242,9.346 C5.219,9.519 4.973,9.536 4.925,9.369 L4.243,7.011 C4.164,6.742 4.279,6.455 4.520,6.308 Z"/>
</svg>