<svg xmlns="http://www.w3.org/2000/svg" viewBox="0 0 43 39" width="43px" height="39px"><style>.st1{fill-rule:evenodd;clip-rule:evenodd;fill:#037cff}</style><switch><g><g id="Forma_1_1_" opacity=".4"><g id="Forma_1"><g><path class="st1" d="M42.1 9.2c-.8-.3-1.7 0-2 .8l-.8 2c-2.9-7.2-10-12-18-12C12.2 0 4.4 6.1 2.4 14.9c-.2.8.3 1.6 1.1 1.8.8.2 1.6-.3 1.8-1.1C7 8.2 13.5 3 21.3 3c6.8 0 12.6 4 15.1 9.9l-1.7-.7c-.8-.3-1.7 0-2 .8-.3.8 0 1.7.8 2l5.2 2.2c.2.1.4.1.6.1.2 0 .4 0 .6-.1.4-.1.6-.4.8-.8l2.2-5.1c.3-.9 0-1.8-.8-2.1zm-2.7 13.1c-.8-.2-1.6.3-1.8 1.1-1.7 7.4-8.3 12.7-16 12.7-6.8 0-12.6-4-15.1-10l1.8.8c.8.3 1.7 0 2-.8.3-.8 0-1.7-.8-2l-5.2-2.2c-.8-.3-1.7 0-2 .8L.1 27.8c-.3.8 0 1.7.8 2 .2.1.4.1.6.1.6 0 1.2-.4 1.4-1l.8-1.8C6.6 34.3 13.6 39 21.6 39c9.2 0 16.9-6.1 18.9-14.9.2-.8-.3-1.6-1.1-1.8z"/></g></g></g></g></switch></svg>