<svg
 xmlns="http://www.w3.org/2000/svg"
 xmlns:xlink="http://www.w3.org/1999/xlink"
 width="12px" height="10px">
<path fill-rule="evenodd"  fill="rgb(160, 166, 200)"
 d="M11.710,1.153 C11.521,1.239 11.328,1.310 11.130,1.369 C11.364,1.099 11.543,0.781 11.652,0.434 C11.676,0.356 11.651,0.271 11.588,0.219 C11.525,0.169 11.438,0.162 11.369,0.204 C10.949,0.458 10.496,0.640 10.021,0.747 C9.542,0.271 8.892,-0.001 8.220,-0.001 C6.802,-0.001 5.648,1.176 5.648,2.621 C5.648,2.735 5.656,2.848 5.669,2.960 C3.909,2.803 2.273,1.921 1.150,0.516 C1.110,0.466 1.048,0.439 0.984,0.444 C0.922,0.449 0.865,0.485 0.833,0.541 C0.605,0.940 0.484,1.396 0.484,1.859 C0.484,2.491 0.706,3.090 1.097,3.559 C0.977,3.517 0.862,3.465 0.752,3.402 C0.693,3.369 0.621,3.369 0.562,3.404 C0.503,3.438 0.466,3.501 0.465,3.570 C0.465,3.582 0.465,3.593 0.465,3.605 C0.465,4.548 0.963,5.397 1.724,5.860 C1.658,5.853 1.593,5.843 1.528,5.831 C1.461,5.818 1.392,5.842 1.347,5.894 C1.302,5.946 1.288,6.018 1.308,6.084 C1.590,6.981 2.315,7.641 3.192,7.842 C2.465,8.306 1.633,8.550 0.760,8.550 C0.578,8.550 0.394,8.539 0.215,8.517 C0.126,8.506 0.041,8.560 0.011,8.646 C-0.020,8.732 0.012,8.829 0.088,8.879 C1.210,9.612 2.507,9.999 3.839,9.999 C6.458,9.999 8.096,8.741 9.009,7.684 C10.148,6.368 10.801,4.625 10.801,2.902 C10.801,2.830 10.800,2.758 10.798,2.686 C11.247,2.341 11.634,1.923 11.948,1.443 C11.997,1.370 11.991,1.274 11.936,1.207 C11.881,1.139 11.789,1.118 11.710,1.153 Z"/>
</svg>