<?xml version="1.0" encoding="utf-8"?>
<!DOCTYPE svg PUBLIC "-//W3C//DTD SVG 1.1//EN" "http://www.w3.org/Graphics/SVG/1.1/DTD/svg11.dtd">
<svg xmlns="http://www.w3.org/2000/svg" xmlns:xlink="http://www.w3.org/1999/xlink" version="1.1" viewBox="0 0 512 512" enable-background="new 0 0 512 512" width="512px" height="512px">
  <g>
    <g>
      <path d="m490.6,222.6h-12.5v-84.4c0-19.8-15.6-35.4-34.4-35.4h-9.4v-56.4c0-19.8-14.6-35.4-32.3-35.4 0,0-1,0-2.1,0l-356.6,91.7c-0.1,0-0.3,0.1-0.4,0.1-17.6,1.4-31.9,16.5-31.9,35.4v327.4c0,19.8 15.6,35.4 34.4,35.4h398.3c19.8,0 35.4-15.6 35.4-35.4v-86.6h11.5c6.3,0 10.4-4.2 10.4-10.4v-135.5c5.68434e-14-6.3-5.2-10.5-10.4-10.5zm-86.6-191.8c5.2,1 10.4,7.3 10.4,15.6v56.3h-287.7l277.3-71.9zm54.3,434.8c0,8.3-6.3,15.6-14.6,15.6h-398.3c-8.3,0-14.6-7.3-14.6-15.6v-327.4c0-8.3 6.3-15.6 14.6-15.6h397.2c8.3,0 14.6,7.3 14.6,15.6v84.4h-103.2c-43.8,0-78.2,34.4-78.2,78.2 0,43.8 35.4,78.2 78.2,78.2h104.3v86.6zm21.8-106.4h-126.1c-31.3,0-57.3-26.1-57.3-57.3s26.1-57.3 57.3-57.3h126.1v114.6z" fill="#395174"/>
      <path d="m342.5,302.9c0,6.3 5.2,10.4 10.4,10.4h9.4c5.2,0 10.4-4.2 10.4-10.4 0-6.3-5.2-10.4-10.4-10.4h-9.3c-6.3,0-10.5,4.2-10.5,10.4z" fill="#395174"/>
    </g>
  </g>
</svg>
