<svg
 xmlns="http://www.w3.org/2000/svg"
 xmlns:xlink="http://www.w3.org/1999/xlink"
 width="16px" height="12px">
<path fill-rule="evenodd"  fill="rgb(160, 166, 200)"
 d="M13.823,0.228 C10.176,-0.031 5.855,-0.101 2.142,0.228 C0.989,0.364 0.200,1.842 0.113,2.966 C-0.069,5.324 -0.069,6.667 0.113,9.026 C0.200,10.149 0.970,11.635 2.143,11.792 C5.900,12.050 10.200,12.087 13.824,11.792 C14.959,11.584 15.767,10.149 15.854,9.026 C16.035,6.667 16.035,5.177 15.854,2.818 C15.765,1.695 15.130,0.278 13.823,0.228 ZM5.981,8.988 L5.981,2.940 L10.985,5.964 L5.981,8.988 Z"/>
</svg>