<svg xmlns="http://www.w3.org/2000/svg" xmlns:xlink="http://www.w3.org/1999/xlink" viewBox="0 0 13 13">
  <path fill-rule="evenodd" fill="currentColor" d="M8.1,6.5l3.7-4c0.3-0.3,0.3-0.9,0-1.3c-0.3-0.3-0.9-0.3-1.2,0L6.3,5.9c-0.3,0.3-0.3,0.9,0,1.2l4.3,4.6c0.2,0.2,0.4,0.3,0.6,0.3c0.2,0,0.4-0.1,0.6-0.3c0.3-0.3,0.3-0.9,0-1.3L8.1,6.5z M3.1,6.5l3.7-4c0.3-0.3,0.3-0.9,0-1.3c-0.3-0.3-0.9-0.3-1.2,0L1.3,5.9c-0.3,0.3-0.3,0.9,0,1.2l4.3,4.6C5.7,11.9,5.9,12,6.1,12c0.2,0,0.4-0.1,0.6-0.3c0.3-0.3,0.3-0.9,0-1.3L3.1,6.5z" />
</svg>
