<?xml version="1.0" encoding="utf-8"?>
<!-- Generator: Adobe Illustrator 21.0.0, SVG Export Plug-In . SVG Version: 6.00 Build 0)  -->
<svg version="1.1" id="Слой_1" xmlns="http://www.w3.org/2000/svg" xmlns:xlink="http://www.w3.org/1999/xlink" x="0px" y="0px"
	 viewBox="0 0 22.6 16.2" style="enable-background:new 0 0 22.6 16.2;" xml:space="preserve">
  <g>
    <path fill="currentColor" d="M20.4,7.5c-0.6-0.3-1.3-0.6-1.9-0.9c-0.4-0.2-0.7-0.3-1-0.6c-0.6-0.5-0.5-1.3,0.2-1.7 c0.2-0.1,0.5-0.1,0.7-0.1c0.8,0,1.6,0.1,2.4,0.5c0.4,0.2,0.5,0.1,0.6-0.3c0.1-0.4,0.2-0.9,0.4-1.3c0.1-0.3,0-0.5-0.3-0.6 C21,2.3,20.5,2.1,20,2c-0.7-0.1-0.7-0.1-0.7-0.8c0-1,0-1-1-1c-0.1,0-0.3,0-0.4,0c-0.5,0-0.5,0.1-0.5,0.6c0,0.2,0,0.4,0,0.6 c0,0.6,0,0.6-0.6,0.8c-1.4,0.5-2.3,1.5-2.4,3.1c-0.1,1.4,0.6,2.4,1.7,3c0.7,0.4,1.4,0.7,2.2,1c0.3,0.1,0.6,0.3,0.8,0.5 c0.7,0.6,0.6,1.6-0.3,2c-0.4,0.2-0.9,0.3-1.4,0.2c-0.7-0.1-1.5-0.3-2.1-0.7c-0.4-0.2-0.5-0.2-0.6,0.3c-0.1,0.4-0.2,0.8-0.3,1.1 c-0.1,0.5-0.1,0.6,0.4,0.9c0.6,0.3,1.3,0.5,1.9,0.6c0.5,0.1,0.5,0.1,0.5,0.7c0,0.3,0,0.5,0,0.8s0.2,0.5,0.5,0.5 c0.4,0,0.7,0,1.1,0c0.3,0,0.4-0.2,0.4-0.5s0-0.7,0-1c0-0.4,0.1-0.5,0.5-0.6c0.7-0.2,1.4-0.6,1.9-1.2C22.9,11.1,22.4,8.6,20.4,7.5 z" />
    <path fill="currentColor" d="M8.5,1.2H5.1l-4.8,14h3l0.8-2.4h5.4l0.8,2.4h3L8.5,1.2z M4.9,10.2l2-6l2,6H4.9z" />
  </g>
</svg>
