<?xml version="1.0" encoding="utf-8"?>
<!-- Generator: Adobe Illustrator 21.0.0, SVG Export Plug-In . SVG Version: 6.00 Build 0)  -->
<svg version="1.1" id="Слой_1" xmlns="http://www.w3.org/2000/svg" xmlns:xlink="http://www.w3.org/1999/xlink" x="0px" y="0px"
	 viewBox="0 0 21.4 16.4" style="enable-background:new 0 0 21.4 16.4;" xml:space="preserve">
  <g>
    <path fill="currentColor" d="M19.3,7.5c-0.6-0.3-1.3-0.6-1.9-0.9c-0.4-0.2-0.7-0.3-1-0.6c-0.6-0.5-0.5-1.3,0.2-1.7 c0.2-0.1,0.5-0.1,0.7-0.1c0.8,0,1.6,0.1,2.4,0.5c0.4,0.2,0.5,0.1,0.6-0.3c0.1-0.4,0.2-0.9,0.4-1.3c0.1-0.3,0-0.5-0.3-0.6 c-0.5-0.2-1-0.4-1.5-0.5c-0.7-0.1-0.7-0.1-0.7-0.8c0-1,0-1-1-1c-0.1,0-0.3,0-0.4,0c-0.5,0-0.5,0.1-0.5,0.6c0,0.2,0,0.4,0,0.6 c0,0.6,0,0.6-0.6,0.8c-1.4,0.5-2.3,1.5-2.4,3.1c-0.1,1.4,0.6,2.4,1.7,3c0.7,0.4,1.4,0.7,2.2,1c0.3,0.1,0.6,0.3,0.8,0.5 c0.7,0.6,0.6,1.6-0.3,2c-0.4,0.2-0.9,0.3-1.4,0.2c-0.7-0.1-1.5-0.3-2.1-0.7c-0.4-0.2-0.5-0.2-0.6,0.3c-0.1,0.4-0.2,0.8-0.3,1.1 c-0.1,0.5-0.1,0.6,0.4,0.9c0.6,0.3,1.3,0.5,1.9,0.6c0.5,0.1,0.5,0.1,0.5,0.7c0,0.3,0,0.5,0,0.8s0.2,0.5,0.5,0.5 c0.4,0,0.7,0,1.1,0c0.3,0,0.4-0.2,0.4-0.5s0-0.7,0-1c0-0.4,0.1-0.5,0.5-0.6c0.7-0.2,1.4-0.6,1.9-1.2C21.8,11.1,21.3,8.6,19.3,7.5 z" />
    <path fill="currentColor" d="M8.2,9.9c1.5-0.4,3-1.7,3-4.2c0-2.6-1.7-4.5-4.6-4.5H0.2v14h2.9v-5h2.1l2.7,5h3.3L8.2,9.9z M6.1,7.6h-3V3.8 h3c1.2,0,2,0.7,2,1.9S7.3,7.6,6.1,7.6z" />
  </g>
</svg>
