<?xml version="1.0" encoding="utf-8"?>
<!-- Generator: Adobe Illustrator 21.0.0, SVG Export Plug-In . SVG Version: 6.00 Build 0)  -->
<svg version="1.1" id="Forma_1_1_" xmlns="http://www.w3.org/2000/svg" xmlns:xlink="http://www.w3.org/1999/xlink" x="0px" y="0px"
	 viewBox="0 0 12.6 16.4" style="enable-background:new 0 0 12.6 16.4;" xml:space="preserve">
  <path fill="currentColor" d="M11.9,0.2H2.3C2.1,0.2,2,0.3,2,0.5v11.1H0.5c-0.2,0-0.3,0.1-0.3,0.3v1.9c0,0.2,0.1,0.3,0.3,0.3H2v1.8 c0,0.2,0.1,0.3,0.3,0.3h2.4c0.2,0,0.3-0.1,0.3-0.3v-1.8h1.5c0.2,0,0.3-0.1,0.3-0.3v-1.9c0-0.2-0.1-0.3-0.3-0.3H5V9.2h5.2 c0.2,0,0.3-0.1,0.3-0.3V6.5c0-0.2-0.1-0.3-0.3-0.3H5v-3h6.9c0.2,0,0.3-0.1,0.3-0.3V0.5C12.2,0.3,12.1,0.2,11.9,0.2z" />
</svg>
