<?xml version="1.0" encoding="utf-8"?>
<!-- Generator: Adobe Illustrator 21.0.0, SVG Export Plug-In . SVG Version: 6.00 Build 0)  -->
<svg version="1.1" id="Фигура_2_1_" xmlns="http://www.w3.org/2000/svg" xmlns:xlink="http://www.w3.org/1999/xlink" x="0px"
	 y="0px" viewBox="0 0 372 401.3" style="enable-background:new 0 0 372 401.3;" xml:space="preserve">
  <path fill="currentColor" d="M302.5,6.7h-256v64h256V6.7z M302.5,294.7v32h-48v-144h80v-64h-320v64h80c0,0,0,3.3,0,31s-9.7,80.9-92,115 c0.6,1.6,21.5,53.2,25,59c131.4-56.6,131-149.8,131-177s0-28,0-28h32c0,0,0,111,0,145s31.8,63,61,63s13.3,0,52,0s63-36.5,63-63 s0-33,0-33H302.5z" />
</svg>
