<?xml version="1.0" encoding="utf-8"?>
<!-- Generator: Adobe Illustrator 21.0.0, SVG Export Plug-In . SVG Version: 6.00 Build 0)  -->
<svg version="1.1" id="Capa_1" xmlns="http://www.w3.org/2000/svg" xmlns:xlink="http://www.w3.org/1999/xlink" x="0px" y="0px"
	 viewBox="0 0 382 512" style="enable-background:new 0 0 382 512;" xml:space="preserve">
  <path fill="currentColor" d="M373.6,486.6l-12.7-57.8c-0.7-3.4-2.5-5.9-5.5-7.6c-3.2-1.7-6.3-1.9-9.5-0.7l-1.8,0.7l-4.4,1.1 c-1.9,0.5-4.2,1-6.7,1.6c-2.5,0.6-5.5,1.2-8.9,1.8c-3.4,0.6-7,1.2-10.7,1.6c-3.8,0.5-7.8,0.9-12.2,1.3c-4.4,0.4-8.7,0.5-13.1,0.5 c-30.8,0-58.5-8.3-83.1-24.9c-24.6-16.6-42.7-39.1-54.4-67.5h140.7c2.7,0,5.1-0.9,7.3-2.7c2.2-1.8,3.5-4.1,4-6.7l8.7-40.7 c0.7-3.6,0-6.9-2.2-9.8c-2.4-2.9-5.5-4.4-9.1-4.4H133.3c-0.7-16.5-0.7-29.2,0-38.2h177.5c6.6,0,10.4-3.1,11.6-9.5l8.7-41.5 c0.7-3.4-0.1-6.5-2.5-9.5c-2.2-2.9-5.2-4.4-9.1-4.4H149.3c12.1-27.2,30.3-48.5,54.5-64c24.2-15.5,51.6-23.3,82.2-23.3 c1-0.5,4.5-0.4,10.7,0.4c6.2,0.7,9.7,1,10.5,0.9c0.8-0.1,4,0.2,9.5,1.1c5.5,0.8,8.2,1.3,8.2,1.3l6.4,1.3c1.8,0.4,3.2,0.7,4.2,0.9 l1.5,0.4c3.1,1,6,0.7,8.7-0.9c2.7-1.6,4.4-3.9,5.1-7.1l15.6-57.8c0.7-3.2,0.4-6.1-1.1-8.7c-2.2-2.9-4.6-4.7-7.3-5.5 C335.7,2.8,312.2,0,287.5,0c-54.3,0-102.9,15.5-145.6,46.5c-42.8,31-72.3,72-88.5,122.9H17.6c-3.4,0-6.2,1.1-8.4,3.3 c-2.2,2.2-3.3,5-3.3,8.4v41.5c0,3.4,1.1,6.2,3.3,8.4c2.2,2.2,5,3.3,8.4,3.3H42c-0.7,11.6-0.8,24.4-0.4,38.2h-24 c-3.2,0-5.9,1.2-8.2,3.5c-2.3,2.3-3.5,5-3.5,8.2v41.1c0,3.2,1.2,5.9,3.5,8.2c2.3,2.3,5,3.4,8.2,3.4h34.5 c15.3,53.6,44.1,96.2,86.5,127.8c42.4,31.6,92,47.5,148.7,47.5c4.6,0,9.3-0.1,14-0.4c4.7-0.2,9.2-0.6,13.3-1.1 c4.1-0.5,8.2-1,12.2-1.6c4-0.6,7.6-1.2,10.9-1.8c3.3-0.6,6.4-1.2,9.3-1.8c2.9-0.6,5.5-1.3,7.8-2c2.3-0.7,4.2-1.3,5.8-1.6 c1.6-0.4,2.9-0.8,3.8-1.3l1.8-0.4c2.7-1,4.7-2.7,6.2-5.3C374,492.2,374.4,489.5,373.6,486.6z" />
</svg>
