<?xml version="1.0" encoding="iso-8859-1"?>
<svg xmlns="http://www.w3.org/2000/svg" xmlns:xlink="http://www.w3.org/1999/xlink" version="1.1" viewBox="0 0 26 26" enable-background="new 0 0 26 26" width="512px" height="512px">
  <path fill="currentColor" d="m17.85,7h2c0.6,0 1-0.4 1-1 0-0.1 0-0.1 0-0.2-0.6-3.3-3.4-5.8-6.9-5.8-3.9,0-7,3.1-7,7 0,0.6 0.1,1.6 0.3,2.3 0.1,0.4 0.2,0.7 0.3,1.1 0.1,0.3-0.2,0.6-0.5,0.6h-2.1c-0.6,0-1,0.4-1,1v2c0,0.6 0.4,1 1,1h3.3c0.2,0 0.5,0.2 0.5,0.4 0.1,0.7 0.2,1.2 0.2,1.6 0,2.1-2.4,4-4.8,5.6-0.1,0.1-0.2,0.3-0.2,0.4s0,0.2 0.1,0.3l1.7,2.5c0.1,0.1 0.3,0.2 0.4,0.2s0.2,0 0.3-0.1c1.2-0.8 2.8-0.9 5.6-0.9 1.7,0 2.7,0.3 3.6,0.6 0.7,0.2 1.5,0.4 2.4,0.4 1.8,0 2.8-0.6 3.5-0.9l.2-.1c0.2-0.1 0.3-0.3 0.3-0.4s0-0.2-0.1-0.2l-1.4-2.7c-0.1-0.2-0.4-0.3-0.7-0.2l-.3,.2c-0.5,0.3-0.8,0.4-1.6,0.4-0.3,0-0.7-0.1-1.3-0.3-1-0.3-2.2-0.6-4.1-0.7-0.4,0-0.6-0.3-0.4-0.7 0.5-1 0.8-2.1 0.8-3.3 0-0.4 0-0.9-0.1-1.4 0-0.3 0.2-0.6 0.5-0.6h5.6c0.6,0 1-0.4 1-1v-2c0-0.6-0.4-1-1-1h-6.7c-0.2,0-0.4-0.2-0.5-0.4-0.2-0.9-0.5-1.8-0.7-2.5-0.1-0.2-0.1-0.8-0.1-1.1 0-1.7 1.3-3 3-3 1.4,0 2.5,0.9 2.9,2.2 0.1,0.3 0.5,0.7 1,0.7z" />
</svg>
