<?xml version="1.0" encoding="utf-8"?>
<!-- Generator: Adobe Illustrator 21.0.0, SVG Export Plug-In . SVG Version: 6.00 Build 0)  -->
<svg version="1.1" id="Capa_1" xmlns="http://www.w3.org/2000/svg" xmlns:xlink="http://www.w3.org/1999/xlink" x="0px" y="0px"
	 viewBox="0 0 332.7 512" style="enable-background:new 0 0 332.7 512;" xml:space="preserve">
  <path fill="currentColor" d="M326.3,116c-2.2-2.2-5-3.3-8.4-3.3h-62.2c-4.1-20.1-11.9-37.6-23.3-52.4h84.7c3.4,0,6.2-1.1,8.4-3.3 c2.2-2.2,3.3-5,3.3-8.4V11.6c0-3.4-1.1-6.2-3.3-8.4c-2.2-2.2-5-3.3-8.4-3.3H14.7c-3.4,0-6.2,1.1-8.4,3.3c-2.2,2.2-3.3,5-3.3,8.4V60 c0,3.2,1.2,5.9,3.5,8.2s5,3.5,8.2,3.5h52.7c51.1,0,83.6,13.7,97.4,41.1H14.7c-3.4,0-6.2,1.1-8.4,3.3c-2.2,2.2-3.3,5-3.3,8.4v37.1 c0,3.4,1.1,6.2,3.3,8.4c2.2,2.2,5,3.3,8.4,3.3H170c-5.3,19.9-17.8,35-37.3,45.5c-19.5,10.4-45.3,15.6-77.3,15.6H14.7 c-3.2,0-5.9,1.2-8.2,3.5c-2.3,2.3-3.5,5-3.5,8.2V292c0,3.2,1.1,5.8,3.3,8c46.5,49.5,106.9,118.7,181.1,207.6 c2.2,2.9,5.2,4.4,9.1,4.4h70.9c5.1,0,8.6-2.2,10.5-6.5c2.4-4.4,1.9-8.5-1.5-12.4c-70.8-86.8-126.4-151.8-166.9-194.9 c41.2-4.8,74.7-18.2,100.4-40c25.7-21.8,41.3-50.2,46.9-85.1H318c3.4,0,6.2-1.1,8.4-3.3c2.2-2.2,3.3-5,3.3-8.4v-37.1 C329.6,121,328.5,118.2,326.3,116z" />
</svg>
