<?xml version="1.0" encoding="utf-8"?>
<!-- Generator: Adobe Illustrator 21.0.0, SVG Export Plug-In . SVG Version: 6.00 Build 0)  -->
<svg version="1.1"
   id="svg2" xmlns:cc="http://creativecommons.org/ns#" xmlns:dc="http://purl.org/dc/elements/1.1/" xmlns:inkscape="http://www.inkscape.org/namespaces/inkscape" xmlns:rdf="http://www.w3.org/1999/02/22-rdf-syntax-ns#" xmlns:sodipodi="http://sodipodi.sourceforge.net/DTD/sodipodi-0.dtd" xmlns:svg="http://www.w3.org/2000/svg"
   xmlns="http://www.w3.org/2000/svg" xmlns:xlink="http://www.w3.org/1999/xlink" x="0px" y="0px" viewBox="0 0 299.5 386.5"
   style="enable-background:new 0 0 299.5 386.5;" xml:space="preserve">
  <g id="layer1" transform="translate(0,-540.36218)">
    <g id="g4345" transform="translate(28,-40.00001)">
      <path id="path3785" fill="currentColor" d="M97,963.9v-58.3H7.9v-39.1H97v-56.1H7.9v-39.1h74.8c-19.8-32.3-38.6-64.2-56.4-96 C8.5,643.7-8.3,612.9-24,582.8h56.6c13.2,28.6,27.5,57.2,42.9,85.8c15.4,28.6,31.3,56.1,47.9,82.5 c16.1-26.4,31.6-53.9,46.5-82.5c14.8-28.6,29.1-57.2,42.6-85.8H268c-16.1,30.4-33.1,61.5-50.9,93.2 c-17.8,31.7-36.6,63.5-56.4,95.4h75.3v39.1H147v56.1h89.1v39.1H147v58.3H97z" />
    </g>
  </g>
</svg>
