<?xml version="1.0" encoding="utf-8"?>
<!-- Generator: Adobe Illustrator 21.0.0, SVG Export Plug-In . SVG Version: 6.00 Build 0)  -->
<svg version="1.1" id="Фигура_1_1_" xmlns="http://www.w3.org/2000/svg" xmlns:xlink="http://www.w3.org/1999/xlink" x="0px"
	 y="0px" viewBox="0 0 20.4 22" style="enable-background:new 0 0 20.4 22;" xml:space="preserve">
  <path fill="currentColor" d="M20.2,13.7v-2.4h-1.6l1.5-9.7C20.2,1.3,19.9,1,19.6,1h-3.1c-0.3,0-0.5,0.2-0.6,0.5l-1.3,9.8h-0.3l-2-9.8 c0-0.3-0.2-0.5-0.5-0.5H8.7C8.4,1,8.1,1.2,8.1,1.5l-2,9.8H5.8L4.5,1.5C4.4,1.2,4.2,1,3.9,1H0.8C0.5,1,0.2,1.3,0.3,1.6l1.6,9.7H0.2 v2.4h2l0.2,1.4H0.2v2.4h2.6l0.5,2.8c0.1,0.3,0.4,0.6,0.7,0.6h3.2c0.3,0,0.6-0.2,0.7-0.6l0.6-2.9h3.6l0.5,2.8 c0.1,0.4,0.4,0.6,0.7,0.6h3.1c0.3,0,0.6-0.3,0.7-0.6l0.5-2.8h2.6V15H18l0.2-1.4L20.2,13.7L20.2,13.7z M10.2,8.4L10.2,8.4l0.6,2.9 H9.5L10.2,8.4z M8.9,15.1l0.3-1.4h2.1l0.3,1.4H8.9z" />
</svg>
