<?xml version="1.0" encoding="utf-8"?>
<!-- Generator: Adobe Illustrator 21.0.0, SVG Export Plug-In . SVG Version: 6.00 Build 0)  -->
<svg version="1.1" id="Слой_1" xmlns="http://www.w3.org/2000/svg" xmlns:xlink="http://www.w3.org/1999/xlink" x="0px" y="0px"
	 viewBox="0 0 31.2 22" style="enable-background:new 0 0 31.2 22;" xml:space="preserve">
  <g>
    <path fill="currentColor" d="M29.1,11.3c-0.6-0.3-1.3-0.6-1.9-0.9c-0.4-0.2-0.7-0.3-1-0.6c-0.6-0.5-0.5-1.3,0.2-1.7C26.6,8,26.9,8,27.1,8 c0.8,0,1.6,0.1,2.4,0.5c0.4,0.2,0.5,0.1,0.6-0.3c0.1-0.4,0.2-0.9,0.4-1.3c0.1-0.3,0-0.5-0.3-0.6c-0.5-0.2-1-0.4-1.5-0.5 C28,5.7,28,5.7,28,5c0-1,0-1-1-1c-0.1,0-0.3,0-0.4,0c-0.5,0-0.5,0.1-0.5,0.6c0,0.2,0,0.4,0,0.6c0,0.6,0,0.6-0.6,0.8 c-1.4,0.5-2.3,1.5-2.4,3.1c-0.1,1.4,0.6,2.4,1.7,3c0.7,0.4,1.4,0.7,2.2,1c0.3,0.1,0.6,0.3,0.8,0.5c0.7,0.6,0.6,1.6-0.3,2 c-0.4,0.2-0.9,0.3-1.4,0.2c-0.7-0.1-1.5-0.3-2.1-0.7c-0.4-0.2-0.5-0.2-0.6,0.3c-0.1,0.4-0.2,0.8-0.3,1.1C23,17,23,17.1,23.5,17.4 c0.6,0.3,1.3,0.5,1.9,0.6c0.5,0.1,0.5,0.1,0.5,0.7c0,0.3,0,0.5,0,0.8s0.2,0.5,0.5,0.5c0.4,0,0.7,0,1.1,0c0.3,0,0.4-0.2,0.4-0.5 s0-0.7,0-1c0-0.4,0.1-0.5,0.5-0.6c0.7-0.2,1.4-0.6,1.9-1.2C31.6,14.9,31.1,12.4,29.1,11.3z" />
    <path fill="currentColor" d="M8.1,13.5L2.7,6H0.2v12h2.5v-7.8L8.2,18h2.4V6H8.1V13.5z M15.6,15.8L21.1,8V6h-8.7v2.2h5.5l-5.5,7.7V18h8.8 v-2.2H15.6z" />
  </g>
</svg>
