<?xml version="1.0" encoding="utf-8"?>
<!-- Generator: Adobe Illustrator 21.0.0, SVG Export Plug-In . SVG Version: 6.00 Build 0)  -->
<svg version="1.1" id="Shape_1_1_" xmlns="http://www.w3.org/2000/svg" xmlns:xlink="http://www.w3.org/1999/xlink" x="0px" y="0px"
	 viewBox="0 0 8.5 16.4" style="enable-background:new 0 0 8.5 16.4;" xml:space="preserve">
  <path fill="currentColor" d="M6.3,7.5C5.7,7.2,5,6.9,4.4,6.6C4,6.4,3.7,6.3,3.4,6C2.8,5.5,2.9,4.7,3.6,4.3c0.2-0.1,0.5-0.1,0.7-0.1 c0.8,0,1.6,0.1,2.4,0.5c0.4,0.2,0.5,0.1,0.6-0.3C7.4,4,7.5,3.5,7.7,3.1c0.1-0.3,0-0.5-0.3-0.6C6.9,2.3,6.4,2.1,5.9,2 C5.2,1.9,5.2,1.9,5.2,1.2c0-1,0-1-1-1c-0.1,0-0.3,0-0.4,0c-0.5,0-0.5,0.1-0.5,0.6c0,0.2,0,0.4,0,0.6c0,0.6,0,0.6-0.6,0.8 C1.3,2.7,0.4,3.7,0.3,5.3C0.2,6.7,0.9,7.7,2,8.3c0.7,0.4,1.4,0.7,2.2,1C4.5,9.4,4.8,9.6,5,9.8c0.7,0.6,0.6,1.6-0.3,2 C4.3,12,3.8,12.1,3.3,12c-0.7-0.1-1.5-0.3-2.1-0.7c-0.4-0.2-0.5-0.2-0.6,0.3c-0.1,0.4-0.2,0.8-0.3,1.1c-0.1,0.5-0.1,0.6,0.4,0.9 c0.6,0.3,1.3,0.5,1.9,0.6c0.5,0.1,0.5,0.1,0.5,0.7c0,0.3,0,0.5,0,0.8s0.2,0.5,0.5,0.5c0.4,0,0.7,0,1.1,0c0.3,0,0.4-0.2,0.4-0.5 s0-0.7,0-1c0-0.4,0.1-0.5,0.5-0.6c0.7-0.2,1.4-0.6,1.9-1.2C8.8,11.1,8.3,8.6,6.3,7.5z" />
</svg>
