<svg
 xmlns="http://www.w3.org/2000/svg"
 xmlns:xlink="http://www.w3.org/1999/xlink"
 width="30px" height="30px">
<path fill-rule="evenodd"  fill="rgb(250, 213, 40)"
 d="M28.999,16.000 L26.999,16.000 C26.447,16.000 25.999,15.552 25.999,15.000 C25.999,14.447 26.447,14.000 26.999,14.000 L28.999,14.000 C29.552,14.000 29.999,14.447 29.999,15.000 C29.999,15.552 29.552,16.000 28.999,16.000 ZM23.485,24.899 L22.777,24.192 C22.387,23.801 22.387,23.168 22.777,22.778 C23.168,22.387 23.801,22.387 24.192,22.778 L24.899,23.485 C25.290,23.875 25.290,24.508 24.899,24.899 C24.508,25.289 23.875,25.289 23.485,24.899 ZM24.192,7.221 C23.801,7.612 23.168,7.612 22.777,7.221 C22.387,6.831 22.387,6.198 22.777,5.807 L23.485,5.100 C23.875,4.709 24.508,4.709 24.899,5.100 C25.290,5.491 25.290,6.124 24.899,6.514 L24.192,7.221 ZM14.999,24.000 C10.029,24.000 5.999,19.970 5.999,15.000 C5.999,10.029 10.029,6.000 14.999,6.000 C19.970,6.000 23.999,10.029 23.999,15.000 C23.999,19.970 19.970,24.000 14.999,24.000 ZM14.999,4.000 C14.447,4.000 13.999,3.552 13.999,3.000 L13.999,1.000 C13.999,0.447 14.447,-0.000 14.999,-0.000 C15.552,-0.000 15.999,0.447 15.999,1.000 L15.999,3.000 C15.999,3.552 15.552,4.000 14.999,4.000 ZM5.807,7.221 L5.100,6.514 C4.709,6.124 4.709,5.491 5.100,5.100 C5.490,4.709 6.123,4.709 6.514,5.100 L7.221,5.807 C7.612,6.198 7.612,6.831 7.221,7.221 C6.831,7.612 6.198,7.612 5.807,7.221 ZM2.999,16.000 L0.999,16.000 C0.447,16.000 -0.001,15.552 -0.001,15.000 C-0.001,14.447 0.447,14.000 0.999,14.000 L2.999,14.000 C3.552,14.000 3.999,14.447 3.999,15.000 C3.999,15.552 3.552,16.000 2.999,16.000 ZM5.807,22.778 C6.198,22.387 6.831,22.387 7.221,22.778 C7.612,23.168 7.612,23.801 7.221,24.192 L6.514,24.899 C6.123,25.289 5.490,25.289 5.100,24.899 C4.709,24.508 4.709,23.875 5.100,23.485 L5.807,22.778 ZM14.999,26.000 C15.552,26.000 15.999,26.447 15.999,27.000 L15.999,29.000 C15.999,29.552 15.552,30.000 14.999,30.000 C14.447,30.000 13.999,29.552 13.999,29.000 L13.999,27.000 C13.999,26.447 14.447,26.000 14.999,26.000 Z"/>
</svg>