<?xml version="1.0" encoding="utf-8"?>
<!-- Generator: Adobe Illustrator 21.0.0, SVG Export Plug-In . SVG Version: 6.00 Build 0)  -->
<svg version="1.1" xmlns="http://www.w3.org/2000/svg" xmlns:xlink="http://www.w3.org/1999/xlink" x="0px" y="0px"
	 viewBox="0 0 30 30" style="enable-background:new 0 0 30 30;" xml:space="preserve">
<style type="text/css">
	.st0{enable-background:new    ;}
	.st1{fill-rule:evenodd;clip-rule:evenodd;fill:#FAD528;}
	.st2{fill-rule:evenodd;clip-rule:evenodd;fill:#585A68;}
</style>
<g id="Эллипс_563_1_" class="st0">
	<g id="Эллипс_563">
		<g>
			<path class="st1" d="M15,4c0.6,0,1-0.4,1-1V1c0-0.6-0.4-1-1-1c-0.6,0-1,0.4-1,1v2C14,3.6,14.4,4,15,4z M29,14h-2
				c-0.6,0-1,0.4-1,1c0,0.6,0.4,1,1,1h2c0.6,0,1-0.4,1-1C30,14.4,29.6,14,29,14z M23.5,5.1l-0.7,0.7c-0.4,0.4-0.4,1,0,1.4
				c0.4,0.4,1,0.4,1.4,0l0.7-0.7c0.4-0.4,0.4-1,0-1.4C24.5,4.7,23.9,4.7,23.5,5.1z M18.5,7c-3,0-5.5,2.5-5.5,5.5s2.5,5.5,5.5,5.5
				s5.5-2.5,5.5-5.5S21.5,7,18.5,7z"/>
		</g>
	</g>
</g>
<g id="moon_1_" class="st0">
	<g id="moon">
		<g>
			<path class="st2" d="M15,26c-0.6,0-1,0.4-1,1v2c0,0.6,0.4,1,1,1c0.6,0,1-0.4,1-1v-2C16,26.4,15.6,26,15,26z M3,14H1
				c-0.6,0-1,0.4-1,1c0,0.6,0.4,1,1,1h2c0.6,0,1-0.4,1-1C4,14.4,3.6,14,3,14z M24.9,23.5l-0.7-0.7c-0.4-0.4-1-0.4-1.4,0
				c-0.4,0.4-0.4,1,0,1.4l0.7,0.7c0.4,0.4,1,0.4,1.4,0C25.3,24.5,25.3,23.9,24.9,23.5z M5.8,22.8l-0.7,0.7c-0.4,0.4-0.4,1,0,1.4
				c0.4,0.4,1,0.4,1.4,0l0.7-0.7c0.4-0.4,0.4-1,0-1.4C6.8,22.4,6.2,22.4,5.8,22.8z M5.8,7.2c0.4,0.4,1,0.4,1.4,0
				c0.4-0.4,0.4-1,0-1.4L6.5,5.1c-0.4-0.4-1-0.4-1.4,0c-0.4,0.4-0.4,1,0,1.4L5.8,7.2z M23.2,17.4c-1.4,1.3-3.4,2.1-5.6,1.8
				c-3.1-0.4-5.6-2.8-5.9-5.9c-0.3-2.8,1.1-5.3,3.4-6.5C15.5,6.6,15.3,6,14.8,6c-0.6,0-1.1,0.1-1.7,0.2C9.2,7.2,6.3,10.5,6,14.4
				C5.7,19.6,9.9,24,15.2,24c4,0,7.5-2.5,8.7-6.1C24.1,17.5,23.5,17.1,23.2,17.4z"/>
		</g>
	</g>
</g>
</svg>
