<svg width="30" height="30" xmlns="http://www.w3.org/2000/svg" xmlns:xlink="http://www.w3.org/1999/xlink"><title>Frame</title><desc>Created using Figma</desc><g transform="translate(224 -82)"><clipPath id="a" clip-rule="evenodd"><path d="M -224 82L -194 82L -194 112L -224 112L -224 82Z" fill="#FFF"/></clipPath><g clip-path="url(#a)"><g><g><use xlink:href="#path0_fill" transform="translate(-218 88)" fill="#585a68"/></g></g></g></g><defs><path id="path0_fill" fill-rule="evenodd" d="M 11.5526 13.2476C 8.46458 12.8656 5.99758 10.4096 5.66158 7.39164C 5.35158 4.61464 6.79658 2.13864 9.04758 0.875643C 9.48558 0.630643 9.30458 -0.0233567 8.80058 0.000643327C 8.23558 0.0266433 7.65958 0.105643 7.07558 0.243643C 3.18158 1.16764 0.283576 4.48664 0.0205759 8.38664C -0.333424 13.6366 3.92658 18.0016 9.23358 18.0016C 13.2796 18.0016 16.7166 15.4636 17.9646 11.9316C 18.1306 11.4596 17.5376 11.1046 17.1696 11.4496C 15.7466 12.7816 13.7346 13.5186 11.5526 13.2476Z"/></defs></svg>