<svg
 xmlns="http://www.w3.org/2000/svg"
 xmlns:xlink="http://www.w3.org/1999/xlink"
 viewBox="0 0 200 200" xml:space="preserve">
<circle style="fill:#F1F0F0;" cx="100" cy="100" r="100"/>
<path style="fill:#2057A7;" d="M20.7,39.1c-7.9,10.2-13.8,22-17.2,34.8h52L20.7,39.1z"/>
<path style="fill:#2057A7;" d="M196.6,73.9c-3.4-12.8-9.4-24.6-17.2-34.8l-34.8,34.8H196.6z"/>
<path style="fill:#2057A7;" d="M3.4,126.1c3.4,12.8,9.4,24.6,17.2,34.8l34.8-34.8H3.4L3.4,126.1z"/>
<path style="fill:#2057A7;" d="M160.9,20.7c-10.2-7.9-22-13.8-34.8-17.2v52L160.9,20.7z"/>
<path style="fill:#2057A7;" d="M39.1,179.3c10.2,7.9,22,13.8,34.8,17.2v-52L39.1,179.3z"/>
<path style="fill:#2057A7;" d="M73.9,3.4c-12.8,3.4-24.6,9.4-34.8,17.2l34.8,34.8V3.4z"/>
<path style="fill:#2057A7;" d="M126.1,196.6c12.8-3.4,24.6-9.4,34.8-17.2l-34.8-34.8L126.1,196.6L126.1,196.6z"/>
<path style="fill:#2057A7;" d="M144.5,126.1l34.8,34.8c7.9-10.2,13.8-22,17.2-34.8H144.5z"/>
<path style="fill:#D81F2A;" d="M199.2,87H113h0V0.8c-4.3-0.6-8.6-0.8-13-0.8c-4.4,0-8.8,0.3-13,0.8V87v0H0.8C0.3,91.2,0,95.6,0,100
  c0,4.4,0.3,8.8,0.8,13H87h0v86.1c4.3,0.6,8.6,0.8,13,0.8c4.4,0,8.8-0.3,13-0.8V113v0h86.1c0.6-4.3,0.8-8.6,0.8-13
  C200,95.6,199.7,91.2,199.2,87z"/>
<path style="fill:#D81F2A;" d="M126.1,126.1L126.1,126.1l44.6,44.6c2.1-2.1,4-4.2,5.9-6.4l-38.2-38.2L126.1,126.1L126.1,126.1L126.1,126.1z"/>
<path style="fill:#D81F2A;" d="M73.9,126.1L73.9,126.1l-44.6,44.6c2.1,2.1,4.2,4,6.4,5.9l38.2-38.2L73.9,126.1L73.9,126.1z"/>
<path style="fill:#D81F2A;" d="M73.9,73.9L73.9,73.9L29.3,29.3c-2.1,2.1-4,4.2-5.9,6.4l38.2,38.2L73.9,73.9L73.9,73.9z"/>
<path style="fill:#D81F2A;" d="M126.1,73.9L126.1,73.9l44.6-44.6c-2.1-2.1-4.2-4-6.4-5.9l-38.2,38.2V73.9z"/>
</svg>
