<svg
 xmlns="http://www.w3.org/2000/svg"
 xmlns:xlink="http://www.w3.org/1999/xlink"
 viewBox="0 0 200 200" xml:space="preserve">
<path style="fill:#F1F0F0;" d="M100,0v21.7h62.2C145.1,8.1,123.5,0,100,0z"/>
<path style="fill:#F1F0F0;" d="M100,100H0c0,9,1.2,17.8,3.4,26.1h193.1c0,0,3.5-7,3.5-26.1H100z"/>
<path style="fill:#F1F0F0;" d="M37.8,178.3h124.4c9.1-7.3,17-16.1,23.1-26.1H14.7C20.8,162.2,28.7,171,37.8,178.3z"/>
<path style="fill:#F1F0F0;" d="M185.3,47.8H100v26.1h96.5C194,64.6,190.2,55.8,185.3,47.8z"/>
<path style="fill:#D81F2A;" d="M196.6,73.9H100V100h100C200,91,198.8,82.2,196.6,73.9z"/>
<path style="fill:#D81F2A;" d="M162.3,21.7H100v26.1h85.4C179.3,37.8,171.5,29,162.3,21.7z"/>
<path style="fill:#D81F2A;" d="M37.8,178.3c17,13.6,38.7,21.7,62.2,21.7s45.2-8.1,62.2-21.7H37.8z"/>
<path style="fill:#D81F2A;" d="M3.4,126.1c2.6,9.3,6.4,18.1,11.3,26.1h170.6c4.9-8,8.7-16.8,11.2-26.1H3.4z"/>
<path style="fill:#2057A7;" d="M0,100C0,44.7,44.7,0,100,0v100H0z"/>
</svg>
