<svg xmlns="http://www.w3.org/2000/svg" xmlns:xlink="http://www.w3.org/1999/xlink"><defs><symbol viewBox="0 0 22.6 16.2" id="AUD"><g fill="currentColor"><path d="M20.4 7.5c-.6-.3-1.3-.6-1.9-.9-.4-.2-.7-.3-1-.6-.6-.5-.5-1.3.2-1.7.2-.1.5-.1.7-.1.8 0 1.6.1 2.4.5.4.2.5.1.6-.3.1-.4.2-.9.4-1.3.1-.3 0-.5-.3-.6-.5-.2-1-.4-1.5-.5-.7-.1-.7-.1-.7-.8 0-1 0-1-1-1h-.4c-.5 0-.5.1-.5.6v.6c0 .6 0 .6-.6.8-1.4.5-2.3 1.5-2.4 3.1-.1 1.4.6 2.4 1.7 3 .7.4 1.4.7 2.2 1 .3.1.6.3.8.5.7.6.6 1.6-.3 2-.4.2-.9.3-1.4.2-.7-.1-1.5-.3-2.1-.7-.4-.2-.5-.2-.6.3-.1.4-.2.8-.3 1.1-.1.5-.1.6.4.9.6.3 1.3.5 1.9.6.5.1.5.1.5.7v.8c0 .3.2.5.5.5h1.1c.3 0 .4-.2.4-.5v-1c0-.4.1-.5.5-.6.7-.2 1.4-.6 1.9-1.2 1.3-1.8.8-4.3-1.2-5.4zM8.5 1.2H5.1l-4.8 14h3l.8-2.4h5.4l.8 2.4h3l-4.8-14zm-3.6 9l2-6 2 6h-4z" /></g></symbol><symbol viewBox="0 0 21.4 16.4" id="BRL"><g fill="currentColor"><path d="M19.3 7.5c-.6-.3-1.3-.6-1.9-.9-.4-.2-.7-.3-1-.6-.6-.5-.5-1.3.2-1.7.2-.1.5-.1.7-.1.8 0 1.6.1 2.4.5.4.2.5.1.6-.3.1-.4.2-.9.4-1.3.1-.3 0-.5-.3-.6-.5-.2-1-.4-1.5-.5-.7-.1-.7-.1-.7-.8 0-1 0-1-1-1h-.4c-.5 0-.5.1-.5.6v.6c0 .6 0 .6-.6.8-1.4.5-2.3 1.5-2.4 3.1-.1 1.4.6 2.4 1.7 3 .7.4 1.4.7 2.2 1 .3.1.6.3.8.5.7.6.6 1.6-.3 2-.4.2-.9.3-1.4.2-.7-.1-1.5-.3-2.1-.7-.4-.2-.5-.2-.6.3-.1.4-.2.8-.3 1.1-.1.5-.1.6.4.9.6.3 1.3.5 1.9.6.5.1.5.1.5.7v.8c0 .3.2.5.5.5h1.1c.3 0 .4-.2.4-.5v-1c0-.4.1-.5.5-.6.7-.2 1.4-.6 1.9-1.2 1.3-1.8.8-4.3-1.2-5.4zM8.2 9.9c1.5-.4 3-1.7 3-4.2 0-2.6-1.7-4.5-4.6-4.5H.2v14h2.9v-5h2.1l2.7 5h3.3l-3-5.3zM6.1 7.6h-3V3.8h3c1.2 0 2 .7 2 1.9s-.8 1.9-2 1.9z" /></g></symbol><symbol viewBox="0 0 12.7 16.7" id="BTC"><path fill="currentColor" d="M12 9.5c-.3-.4-.6-.8-1.1-1-.3-.2-.8-.3-1.3-.5.5-.2 1-.4 1.3-.7s.6-.6.8-.9c.2-.4.3-.7.3-1.1 0-.5-.2-1-.5-1.5s-.8-.8-1.4-1.1c-.2-.1-.5-.2-.8-.2V.4H7.2v2H5.8v-2H3.7v2H.4v1.7h.5c.3 0 .6 0 .7.1.1.1.2.1.2.2s.1.3.1.7v6.7c0 .4 0 .6-.1.7 0 .1-.1.2-.2.2-.1.1-.3.1-.7.1H.4v1.6h3.2v2h2.1v-2h1.4v2h2.1v-2.2c.4-.1.7-.2.9-.3.7-.3 1.3-.7 1.7-1.2.4-.5.6-1.1.6-1.8 0-.4-.1-.9-.4-1.4zM6.3 4.3c.8 0 1.4 0 1.7.1.3.1.5.3.7.5s.2.5.2.8-.1.6-.3.8c-.2.2-.4.4-.8.5-.3.1-.9.2-1.6.2H4.8V4.3h1.5zm2.5 7.5c-.2.3-.5.5-.9.6-.3.1-.8.1-1.3.1H5.1c-.1 0-.1-.1-.1-.2V9h1.6c.7 0 1.2.1 1.6.2.3.1.6.3.8.6.2.2.3.5.3.9-.1.4-.2.8-.5 1.1z" /></symbol><symbol viewBox="0 0 21.6 16.2" id="CAD"><g fill="currentColor"><path d="M19.4 7.5c-.6-.3-1.3-.6-1.9-.9-.4-.2-.7-.3-1-.6-.6-.5-.5-1.3.2-1.7.2-.1.5-.1.7-.1.8 0 1.6.1 2.4.5.4.2.5.1.6-.3.1-.4.2-.9.4-1.3.1-.3 0-.5-.3-.6-.5-.2-1-.4-1.5-.5-.7-.1-.7-.1-.7-.8 0-1 0-1-1-1h-.4c-.5 0-.5.1-.5.6v.6c0 .6 0 .6-.6.8-1.4.5-2.3 1.5-2.4 3.1-.1 1.4.6 2.4 1.7 3 .7.4 1.4.7 2.2 1 .3.1.6.3.8.5.7.6.6 1.6-.3 2-.4.2-.9.3-1.4.2-.7-.1-1.5-.3-2.1-.7-.4-.2-.5-.2-.6.3-.1.4-.2.8-.3 1.1-.1.5-.1.6.4.9.6.3 1.3.5 1.9.6.5.1.5.1.5.7v.8c0 .3.2.5.5.5h1.1c.3 0 .4-.2.4-.5v-1c0-.4.1-.5.5-.6.7-.2 1.4-.6 1.9-1.2 1.3-1.8.8-4.3-1.2-5.4zM7 12.6c-2.3 0-4-1.9-4-4.4 0-2.6 1.7-4.4 4-4.4 1.3 0 2.4.9 3 2l2.3-1.3C11.4 2.8 9.8 1.2 7 1.2 3.2 1.2.3 4.1.3 8.2c0 4.2 2.9 7 6.7 7 2.8 0 4.4-1.6 5.3-3.3L10 10.7c-.5 1.1-1.7 1.9-3 1.9z" /></g></symbol><symbol viewBox="0 0 12.6 16.4" id="CHF"><path fill="currentColor" d="M11.9.2H2.3c-.2 0-.3.1-.3.3v11.1H.5c-.2 0-.3.1-.3.3v1.9c0 .2.1.3.3.3H2v1.8c0 .2.1.3.3.3h2.4c.2 0 .3-.1.3-.3v-1.8h1.5c.2 0 .3-.1.3-.3v-1.9c0-.2-.1-.3-.3-.3H5V9.2h5.2c.2 0 .3-.1.3-.3V6.5c0-.2-.1-.3-.3-.3H5v-3h6.9c.2 0 .3-.1.3-.3V.5c0-.2-.1-.3-.3-.3z" /></symbol><symbol viewBox="0 0 372 401.3" id="CNY"><path fill="currentColor" d="M302.5 6.7h-256v64h256v-64zm0 288v32h-48v-144h80v-64h-320v64h80v31c0 27.7-9.7 80.9-92 115 .6 1.6 21.5 53.2 25 59 131.4-56.6 131-149.8 131-177v-28h32v145c0 34 31.8 63 61 63h52c38.7 0 63-36.5 63-63v-33h-64z" /></symbol><symbol viewBox="0 0 141.2 226.8" id="ETH"><g fill="currentColor"><path d="M68.4 157V87L0 116.9zM68.4 82.2V-.1L2.2 111.2zM72.8-.1v82.3l67.1 29.4zM72.8 87v70l68.4-40zM68.4 227.4v-56.3l-68-39.8zM72.8 227.4l67.9-96.1-67.9 39.8z" /></g></symbol><symbol viewBox="0 0 382 512" id="EUR"><path fill="currentColor" d="M373.6 486.6l-12.7-57.8c-.7-3.4-2.5-5.9-5.5-7.6-3.2-1.7-6.3-1.9-9.5-.7l-1.8.7-4.4 1.1c-1.9.5-4.2 1-6.7 1.6-2.5.6-5.5 1.2-8.9 1.8-3.4.6-7 1.2-10.7 1.6-3.8.5-7.8.9-12.2 1.3-4.4.4-8.7.5-13.1.5-30.8 0-58.5-8.3-83.1-24.9-24.6-16.6-42.7-39.1-54.4-67.5h140.7c2.7 0 5.1-.9 7.3-2.7 2.2-1.8 3.5-4.1 4-6.7l8.7-40.7c.7-3.6 0-6.9-2.2-9.8-2.4-2.9-5.5-4.4-9.1-4.4H133.3c-.7-16.5-.7-29.2 0-38.2h177.5c6.6 0 10.4-3.1 11.6-9.5l8.7-41.5c.7-3.4-.1-6.5-2.5-9.5-2.2-2.9-5.2-4.4-9.1-4.4H149.3c12.1-27.2 30.3-48.5 54.5-64S255.4 82 286 82c1-.5 4.5-.4 10.7.4 6.2.7 9.7 1 10.5.9.8-.1 4 .2 9.5 1.1 5.5.8 8.2 1.3 8.2 1.3l6.4 1.3c1.8.4 3.2.7 4.2.9l1.5.4c3.1 1 6 .7 8.7-.9 2.7-1.6 4.4-3.9 5.1-7.1l15.6-57.8c.7-3.2.4-6.1-1.1-8.7-2.2-2.9-4.6-4.7-7.3-5.5C335.7 2.8 312.2 0 287.5 0c-54.3 0-102.9 15.5-145.6 46.5-42.8 31-72.3 72-88.5 122.9H17.6c-3.4 0-6.2 1.1-8.4 3.3-2.2 2.2-3.3 5-3.3 8.4v41.5c0 3.4 1.1 6.2 3.3 8.4 2.2 2.2 5 3.3 8.4 3.3H42c-.7 11.6-.8 24.4-.4 38.2h-24c-3.2 0-5.9 1.2-8.2 3.5-2.3 2.3-3.5 5-3.5 8.2v41.1c0 3.2 1.2 5.9 3.5 8.2 2.3 2.3 5 3.4 8.2 3.4h34.5c15.3 53.6 44.1 96.2 86.5 127.8 42.4 31.6 92 47.5 148.7 47.5 4.6 0 9.3-.1 14-.4 4.7-.2 9.2-.6 13.3-1.1 4.1-.5 8.2-1 12.2-1.6 4-.6 7.6-1.2 10.9-1.8 3.3-.6 6.4-1.2 9.3-1.8 2.9-.6 5.5-1.3 7.8-2s4.2-1.3 5.8-1.6c1.6-.4 2.9-.8 3.8-1.3l1.8-.4c2.7-1 4.7-2.7 6.2-5.3 1.6-2.7 2-5.4 1.2-8.3z" /></symbol><symbol viewBox="0 0 26 26" id="GBP"><path fill="currentColor" d="M17.85 7h2c.6 0 1-.4 1-1v-.2c-.6-3.3-3.4-5.8-6.9-5.8-3.9 0-7 3.1-7 7 0 .6.1 1.6.3 2.3.1.4.2.7.3 1.1.1.3-.2.6-.5.6h-2.1c-.6 0-1 .4-1 1v2c0 .6.4 1 1 1h3.3c.2 0 .5.2.5.4.1.7.2 1.2.2 1.6 0 2.1-2.4 4-4.8 5.6-.1.1-.2.3-.2.4s0 .2.1.3l1.7 2.5c.1.1.3.2.4.2s.2 0 .3-.1c1.2-.8 2.8-.9 5.6-.9 1.7 0 2.7.3 3.6.6.7.2 1.5.4 2.4.4 1.8 0 2.8-.6 3.5-.9l.2-.1c.2-.1.3-.3.3-.4s0-.2-.1-.2l-1.4-2.7c-.1-.2-.4-.3-.7-.2l-.3.2c-.5.3-.8.4-1.6.4-.3 0-.7-.1-1.3-.3-1-.3-2.2-.6-4.1-.7-.4 0-.6-.3-.4-.7.5-1 .8-2.1.8-3.3 0-.4 0-.9-.1-1.4 0-.3.2-.6.5-.6h5.6c.6 0 1-.4 1-1v-2c0-.6-.4-1-1-1h-6.7c-.2 0-.4-.2-.5-.4-.2-.9-.5-1.8-.7-2.5-.1-.2-.1-.8-.1-1.1 0-1.7 1.3-3 3-3 1.4 0 2.5.9 2.9 2.2.1.3.5.7 1 .7z" /></symbol><symbol viewBox="0 0 332.7 512" id="INR"><path fill="currentColor" d="M326.3 116c-2.2-2.2-5-3.3-8.4-3.3h-62.2c-4.1-20.1-11.9-37.6-23.3-52.4h84.7c3.4 0 6.2-1.1 8.4-3.3 2.2-2.2 3.3-5 3.3-8.4v-37c0-3.4-1.1-6.2-3.3-8.4-2.2-2.2-5-3.3-8.4-3.3H14.7C11.3-.1 8.5 1 6.3 3.2 4.1 5.4 3 8.2 3 11.6V60c0 3.2 1.2 5.9 3.5 8.2s5 3.5 8.2 3.5h52.7c51.1 0 83.6 13.7 97.4 41.1H14.7c-3.4 0-6.2 1.1-8.4 3.3-2.2 2.2-3.3 5-3.3 8.4v37.1c0 3.4 1.1 6.2 3.3 8.4 2.2 2.2 5 3.3 8.4 3.3H170c-5.3 19.9-17.8 35-37.3 45.5-19.5 10.4-45.3 15.6-77.3 15.6H14.7c-3.2 0-5.9 1.2-8.2 3.5-2.3 2.3-3.5 5-3.5 8.2V292c0 3.2 1.1 5.8 3.3 8 46.5 49.5 106.9 118.7 181.1 207.6 2.2 2.9 5.2 4.4 9.1 4.4h70.9c5.1 0 8.6-2.2 10.5-6.5 2.4-4.4 1.9-8.5-1.5-12.4-70.8-86.8-126.4-151.8-166.9-194.9 41.2-4.8 74.7-18.2 100.4-40 25.7-21.8 41.3-50.2 46.9-85.1H318c3.4 0 6.2-1.1 8.4-3.3 2.2-2.2 3.3-5 3.3-8.4v-37.1c-.1-3.3-1.2-6.1-3.4-8.3z" /></symbol><symbol viewBox="0 0 299.5 386.5" id="JPY"><path fill="currentColor" d="M125 383.538v-58.3H35.9v-39.1H125v-56.1H35.9v-39.1h74.8c-19.8-32.3-38.6-64.2-56.4-96-17.8-31.6-34.6-62.4-50.3-92.5h56.6c13.2 28.6 27.5 57.2 42.9 85.8 15.4 28.6 31.3 56.1 47.9 82.5 16.1-26.4 31.6-53.9 46.5-82.5 14.8-28.6 29.1-57.2 42.6-85.8H296c-16.1 30.4-33.1 61.5-50.9 93.2-17.8 31.7-36.6 63.5-56.4 95.4H264v39.1h-89v56.1h89.1v39.1H175v58.3h-50z" /></symbol><symbol viewBox="0 0 20.4 22" id="KRW"><path fill="currentColor" d="M20.2 13.7v-2.4h-1.6l1.5-9.7c.1-.3-.2-.6-.5-.6h-3.1c-.3 0-.5.2-.6.5l-1.3 9.8h-.3l-2-9.8c0-.3-.2-.5-.5-.5H8.7c-.3 0-.6.2-.6.5l-2 9.8h-.3L4.5 1.5c-.1-.3-.3-.5-.6-.5H.8c-.3 0-.6.3-.5.6l1.6 9.7H.2v2.4h2l.2 1.4H.2v2.4h2.6l.5 2.8c.1.3.4.6.7.6h3.2c.3 0 .6-.2.7-.6l.6-2.9h3.6l.5 2.8c.1.4.4.6.7.6h3.1c.3 0 .6-.3.7-.6l.5-2.8h2.6V15H18l.2-1.4 2 .1zm-10-5.3l.6 2.9H9.5l.7-2.9zm-1.3 6.7l.3-1.4h2.1l.3 1.4H8.9z" /></symbol><symbol viewBox="0 0 183.5 226.8" id="LTC"><path fill="currentColor" d="M72.5 184.1l12.7-60.8L149.8 79l7.6-36.1-64.6 44.4L111.1 0H61.5L34.9 127.2 7.7 145.9l-6.3 34.9 26-17.8L14 226.7h158.9l8.9-42.6z" /></symbol><symbol viewBox="0 0 31.2 22" id="NZD"><g fill="currentColor"><path d="M29.1 11.3c-.6-.3-1.3-.6-1.9-.9-.4-.2-.7-.3-1-.6-.6-.5-.5-1.3.2-1.7.2-.1.5-.1.7-.1.8 0 1.6.1 2.4.5.4.2.5.1.6-.3.1-.4.2-.9.4-1.3.1-.3 0-.5-.3-.6-.5-.2-1-.4-1.5-.5-.7-.1-.7-.1-.7-.8 0-1 0-1-1-1h-.4c-.5 0-.5.1-.5.6v.6c0 .6 0 .6-.6.8-1.4.5-2.3 1.5-2.4 3.1-.1 1.4.6 2.4 1.7 3 .7.4 1.4.7 2.2 1 .3.1.6.3.8.5.7.6.6 1.6-.3 2-.4.2-.9.3-1.4.2-.7-.1-1.5-.3-2.1-.7-.4-.2-.5-.2-.6.3-.1.4-.2.8-.3 1.1-.1.5-.1.6.4.9.6.3 1.3.5 1.9.6.5.1.5.1.5.7v.8c0 .3.2.5.5.5h1.1c.3 0 .4-.2.4-.5v-1c0-.4.1-.5.5-.6.7-.2 1.4-.6 1.9-1.2 1.3-1.8.8-4.3-1.2-5.4zM8.1 13.5L2.7 6H.2v12h2.5v-7.8L8.2 18h2.4V6H8.1v7.5zm7.5 2.3L21.1 8V6h-8.7v2.2h5.5l-5.5 7.7V18h8.8v-2.2h-5.6z" /></g></symbol><symbol viewBox="0 0 473 512" id="RUB"><path fill="currentColor" d="M302.9 317.8c48.5 0 88.1-14.8 118.7-44.4 30.7-29.6 46-67.8 46-114.5 0-46.8-15.3-85-46-114.5C391 14.8 351.4 0 302.9 0h-196c-3.4 0-6.2 1.1-8.4 3.3-2.2 2.2-3.3 5-3.3 8.4v228.7H13.8c-3.4 0-6.2 1.1-8.4 3.4s-3.3 5-3.3 8.2v54.2c0 3.4 1.1 6.2 3.3 8.4 2.2 2.2 5 3.3 8.4 3.3h81.5v42.9H13.8c-3.4 0-6.2 1.1-8.4 3.3-2.2 2.2-3.3 5-3.3 8.4v46.6c0 3.4 1.1 6.2 3.3 8.4 2.2 2.2 5 3.3 8.4 3.3h81.5v69.8c0 3.4 1.1 6.2 3.3 8.4 2.2 2.2 5 3.3 8.4 3.3h60.7c3.1 0 5.9-1.1 8.2-3.3 2.3-2.2 3.5-5 3.5-8.4v-69.8H363c3.4 0 6.2-1.1 8.4-3.3 2.2-2.2 3.3-5 3.3-8.4v-46.6c0-3.4-1.1-6.2-3.3-8.4-2.2-2.2-5-3.3-8.4-3.3H179.3v-42.9l123.6-.1zM179.3 77.4h116.4c25.7 0 46.4 7.5 62.2 22.5 15.8 15 23.6 34.7 23.6 58.9s-7.9 43.9-23.6 58.9c-15.8 15-36.5 22.6-62.2 22.6H179.3V77.4z" /></symbol><symbol viewBox="0 0 8.5 16.4" id="USD"><path fill="currentColor" d="M6.3 7.5c-.6-.3-1.3-.6-1.9-.9-.4-.2-.7-.3-1-.6-.6-.5-.5-1.3.2-1.7.2-.1.5-.1.7-.1.8 0 1.6.1 2.4.5.4.2.5.1.6-.3.1-.4.2-.9.4-1.3.1-.3 0-.5-.3-.6-.5-.2-1-.4-1.5-.5-.7-.1-.7-.1-.7-.8 0-1 0-1-1-1h-.4c-.5 0-.5.1-.5.6v.6c0 .6 0 .6-.6.8C1.3 2.7.4 3.7.3 5.3.2 6.7.9 7.7 2 8.3c.7.4 1.4.7 2.2 1 .3.1.6.3.8.5.7.6.6 1.6-.3 2-.4.2-.9.3-1.4.2-.7-.1-1.5-.3-2.1-.7-.4-.2-.5-.2-.6.3-.1.4-.2.8-.3 1.1-.1.5-.1.6.4.9.6.3 1.3.5 1.9.6.5.1.5.1.5.7v.8c0 .3.2.5.5.5h1.1c.3 0 .4-.2.4-.5v-1c0-.4.1-.5.5-.6.7-.2 1.4-.6 1.9-1.2 1.3-1.8.8-4.3-1.2-5.4z" /></symbol><symbol viewBox="0 0 14 13" id="arrow-down"><path fill-rule="evenodd" fill="#46B02E" d="M5.048 10.055l7.53-7.51a1.468 1.468 0 000-2.08 1.476 1.476 0 00-2.085 0l-7.53 7.51V5.286c0-.812-.66-1.471-1.474-1.471-.815 0-1.475.659-1.475 1.471v6.239c0 .049.002.096.007.145l.005.035c.005.035.009.071.016.107.002.01.006.02.007.031l.028.109.008.021a1.212 1.212 0 00.102.245l.009.014c.02.037.042.073.065.109l.023.031c.02.028.04.057.063.085a1.453 1.453 0 00.294.271l.031.022a1.104 1.104 0 00.123.074 1.563 1.563 0 00.376.137l.03.007c.037.007.072.012.109.017l.034.005c.048.004.097.007.145.007h6.255a1.472 1.472 0 001.474-1.471c0-.812-.659-1.471-1.474-1.471H5.048z" /></symbol><symbol viewBox="0 0 14 13" id="arrow-up"><path fill-rule="evenodd" fill="#EF192D" d="M7.962 2.958L.45 10.505a1.484 1.484 0 000 2.09 1.467 1.467 0 002.081 0l7.511-7.547v2.703c0 .815.659 1.477 1.471 1.477a1.473 1.473 0 001.471-1.477v-6.27c0-.048-.002-.097-.007-.145l-.005-.035c-.005-.036-.009-.072-.016-.108l-.008-.031a2.202 2.202 0 00-.027-.11l-.007-.021c-.013-.038-.026-.077-.042-.115-.001-.005-.004-.009-.006-.014a1.75 1.75 0 00-.055-.116l-.009-.015a1.01 1.01 0 00-.088-.14 1.242 1.242 0 00-.27-.294c-.027-.024-.057-.044-.086-.065l-.03-.022a1.524 1.524 0 00-.24-.129c-.004-.002-.009-.005-.014-.006a1.3 1.3 0 00-.115-.042l-.02-.007a1.102 1.102 0 00-.11-.027 1.34 1.34 0 00-.173-.029 1.356 1.356 0 00-.143-.007H5.272a1.461 1.461 0 00-1.04.432 1.479 1.479 0 00-.431 1.045c0 .817.659 1.478 1.471 1.478h2.69z" /></symbol><symbol aria-hidden="true" class="svg-inline--fa fa-at fa-w-16" viewBox="0 0 512 512" id="at-solid"><path fill="currentColor" d="M256 8C118.941 8 8 118.919 8 256c0 137.059 110.919 248 248 248 48.154 0 95.342-14.14 135.408-40.223 12.005-7.815 14.625-24.288 5.552-35.372l-10.177-12.433c-7.671-9.371-21.179-11.667-31.373-5.129C325.92 429.757 291.314 440 256 440c-101.458 0-184-82.542-184-184S154.542 72 256 72c100.139 0 184 57.619 184 160 0 38.786-21.093 79.742-58.17 83.693-17.349-.454-16.91-12.857-13.476-30.024l23.433-121.11C394.653 149.75 383.308 136 368.225 136h-44.981a13.518 13.518 0 00-13.432 11.993l-.01.092c-14.697-17.901-40.448-21.775-59.971-21.775-74.58 0-137.831 62.234-137.831 151.46 0 65.303 36.785 105.87 96 105.87 26.984 0 57.369-15.637 74.991-38.333 9.522 34.104 40.613 34.103 70.71 34.103C462.609 379.41 504 307.798 504 232 504 95.653 394.023 8 256 8zm-21.68 304.43c-22.249 0-36.07-15.623-36.07-40.771 0-44.993 30.779-72.729 58.63-72.729 22.292 0 35.601 15.241 35.601 40.77 0 45.061-33.875 72.73-58.161 72.73z" /></symbol><symbol viewBox="0 0 16 16" id="became-active"><path fill="currentColor" fill-rule="evenodd" d="M11.13 8.487L9.043 7.304V4.522c0-.557-.486-1.044-1.043-1.044s-1.043.487-1.043 1.044v2.782c0 .21.07.418.208.626-.07.348.14.766.487.974l2.435 1.392c.487.278 1.113.139 1.391-.418.348-.487.14-1.113-.348-1.391z" /><path fill="currentColor" fill-rule="evenodd" d="M13.948 2.643l-.626-.626C11.93.765 10.052.07 8.174 0h-.348C5.948.07 4.07.765 2.678 2.017c-.208.21-.417.418-.626.626C.8 4.035.104 5.913.035 7.791V8.21c.07 1.878.765 3.756 2.017 5.148l.626.626C4.07 15.235 5.878 15.93 7.757 16H8.244c1.878-.07 3.686-.765 5.078-2.017.208-.21.417-.418.626-.627 1.252-1.39 1.948-3.2 2.017-5.078v-.07-.069V7.93v-.07-.069-.07c-.07-1.877-.765-3.686-2.017-5.078zm-5.983 11.27c-3.27 0-5.913-2.643-5.913-5.913s2.644-5.913 5.913-5.913S13.878 4.73 13.878 8s-2.643 5.913-5.913 5.913z" /></symbol><symbol viewBox="0 0 10 14" id="bitcoin"><path fill-rule="evenodd" fill="#A0A6C8" d="M9.674 8.005a2.322 2.322 0 00-.883-.887c-.258-.15-.63-.29-1.118-.415.454-.157.82-.352 1.095-.592a2.48 2.48 0 00.633-.829 2.288 2.288 0 00-.192-2.309c-.28-.402-.676-.707-1.192-.92a3.649 3.649 0 00-.699-.197V-.003H5.564v1.734H4.433V-.003H2.677v1.734H-.004v1.456h.405c.273 0 .461.026.556.077.095.05.166.118.207.205.04.085.059.285.059.598v5.877c0 .307-.019.502-.059.59a.456.456 0 01-.207.207c-.095.047-.283.069-.556.069h-.405v1.456h2.681v1.736h1.756v-1.736h1.13v1.736h1.755v-1.883c.297-.057.557-.132.777-.222.607-.246 1.076-.605 1.407-1.075.336-.473.5-.988.5-1.547 0-.466-.108-.889-.328-1.27zM3.791 3.429h1.137c.664 0 1.128.042 1.386.127.255.081.454.221.589.417.138.198.204.437.204.713 0 .265-.072.499-.213.704-.146.205-.361.357-.645.456-.286.102-.725.154-1.32.154H3.791V3.429zm3.213 6.515c-.205.26-.447.435-.74.516-.287.083-.652.125-1.093.125h-.757c-.252 0-.407-.015-.465-.042-.058-.025-.097-.075-.123-.145-.017-.057-.032-.245-.035-.571V7.546h1.342c.594 0 1.028.057 1.316.168.285.111.503.274.643.492.146.215.219.477.219.792 0 .369-.102.682-.307.946z" /></symbol><symbol class="m-1" viewBox="0 0 512 512" id="bitcointalk"><path fill="currentColor" d="M504 256c0 136.967-111.033 248-248 248S8 392.967 8 256 119.033 8 256 8s248 111.033 248 248zm-141.651-35.33c4.937-32.999-20.191-50.739-54.55-62.573l11.146-44.702-27.213-6.781-10.851 43.524c-7.154-1.783-14.502-3.464-21.803-5.13l10.929-43.81-27.198-6.781-11.153 44.686c-5.922-1.349-11.735-2.682-17.377-4.084l.031-.14-37.53-9.37-7.239 29.062s20.191 4.627 19.765 4.913c11.022 2.751 13.014 10.044 12.68 15.825l-12.696 50.925c.76.194 1.744.473 2.829.907-.907-.225-1.876-.473-2.876-.713l-17.796 71.338c-1.349 3.348-4.767 8.37-12.471 6.464.271.395-19.78-4.937-19.78-4.937l-13.51 31.147 35.414 8.827c6.588 1.651 13.045 3.379 19.4 5.006l-11.262 45.213 27.182 6.781 11.153-44.733a1038.209 1038.209 0 0021.687 5.627l-11.115 44.523 27.213 6.781 11.262-45.128c46.404 8.781 81.299 5.239 95.986-36.727 11.836-33.79-.589-53.281-25.004-65.991 17.78-4.098 31.174-15.792 34.747-39.949zm-62.177 87.179c-8.41 33.79-65.308 15.523-83.755 10.943l14.944-59.899c18.446 4.603 77.6 13.717 68.811 48.956zm8.417-87.667c-7.673 30.736-55.031 15.12-70.393 11.292l13.548-54.327c15.363 3.828 64.836 10.973 56.845 43.035z" /></symbol><symbol viewBox="0 0 35 38" id="block"><path fill-rule="evenodd" fill="#037CFF" d="M32.386 31.005l-12.787 6.492a4.659 4.659 0 01-4.216 0L2.594 31.003a4.763 4.763 0 01-2.595-4.3V11.252C0 9.424 1.001 7.784 2.613 6.971L15.4.479a4.672 4.672 0 014.195-.002l.004.002 12.79 6.494c1.608.811 2.61 2.451 2.611 4.279v15.472c-.001 1.828-1.003 3.468-2.614 4.281zM3.024 26.707v.011a1.704 1.704 0 00.927 1.54l12.036 6.11V18.306L3.024 11.724v14.983zM18.248 3.228a1.666 1.666 0 00-1.499 0L4.902 9.243l12.597 6.396 12.597-6.396-11.848-6.015zm13.726 8.497l-12.962 6.581V34.36l12.024-6.104c.58-.293.938-.879.938-1.533V11.725z" /></symbol><symbol class="fill-current ml-2" viewBox="0 0 20 20" id="caret"><path fill="currentColor" d="M9.293 12.95l.707.707L15.657 8l-1.414-1.414L10 10.828 5.757 6.586 4.343 8z" /></symbol><symbol viewBox="0 0 5 8" id="caret-left"><path fill-rule="evenodd" fill="#FFF" d="M4.054 8L5 7.067 1.892 4 5 .933 4.054 0 0 4l4.054 4z" /></symbol><symbol viewBox="0 0 5 8" id="caret-right"><path fill-rule="evenodd" fill="#FFF" d="M.946-.001L0 .933 3.107 4 0 7.066.946 8l4.053-4L.946-.001z" /></symbol><symbol viewBox="0 0 18 17" id="chart"><path fill-rule="evenodd" fill="currentColor" d="M17.954 1.704c-.034.687-.067 1.37-.097 2.053-.007.159-.036.363-.196.523a.672.672 0 01-.155.115.539.539 0 01-.259.071c-.203 0-.336-.134-.433-.23l-.81-.81-7.161 7.187a.91.91 0 01-1.287 0L4.704 7.751l-2.985 2.996a.906.906 0 01-1.283 0l-.17-.171a.912.912 0 010-1.288l3.798-3.809a.905.905 0 011.284 0L8.2 8.341l6.347-6.374c-.185-.181-.37-.367-.551-.553l-.263-.267c-.103-.104-.322-.323-.166-.661a.536.536 0 01.115-.171c.151-.152.343-.159.484-.167C15.217.1 16.263.048 17.314 0h.059c.207 0 .37.059.477.174.115.119.163.286.152.502l-.048 1.028zM4.002 11.006v5.637c0 .199-.152.357-.336.357H1.337c-.187 0-.336-.162-.336-.357v-3.204a2 2 0 001.31-.634l1.691-1.799zm4.001 2.315v3.324a.347.347 0 01-.336.355H5.338c-.187 0-.336-.162-.336-.355v-5.646l1.6 1.692c.374.396.87.618 1.401.63zm4.001-3.316v6.647a.343.343 0 01-.336.348h-2.33a.343.343 0 01-.336-.348v-3.603c.119-.079.229-.17.333-.277l2.669-2.767zm3.824-3.943c.042.039.1.098.176.165v10.428a.341.341 0 01-.336.345h-2.329a.341.341 0 01-.336-.345v-7.79l2.776-2.854.049.051z" /></symbol><symbol viewBox="0 0 14 16" id="chat"><path fill-rule="evenodd" fill="#2987FF" d="M6.999 14c-.57 0-1.116-.086-1.648-.217L2 16l.021-4.086A6.977 6.977 0 01-.001 7 7.001 7.001 0 0114 7c0 3.865-3.135 7-7.001 7zm0-11C4.791 3 3 4.763 3 6.937c0 1.078.442 2.053 1.155 2.764L4.143 12l1.915-1.247c.303.073.616.122.941.122C9.208 10.875 11 9.112 11 6.937 11 4.763 9.208 3 6.999 3z" /></symbol><symbol viewBox="0 0 17 13" id="check"><path fill-rule="evenodd" fill="#172130" d="M15.93 1.787L6.011 11.929a.219.219 0 01-.316 0L.062 6.17a.232.232 0 010-.323l1.369-1.399a.22.22 0 01.316 0l4.106 4.198L14.246.065a.219.219 0 01.316 0l1.368 1.399a.232.232 0 010 .323z" /></symbol><symbol viewBox="0 0 19 19" id="circle"><path fill-rule="evenodd" fill="#56b641" d="M9.5 0c5.246 0 9.499 4.253 9.499 9.5S14.746 19 9.5 19C4.253 19-.001 14.747-.001 9.5S4.253 0 9.5 0z" /></symbol><symbol viewBox="0 0 32 32" id="circle-o"><path stroke-width="3" stroke="currentColor" fill="none" d="M16 6.5c5.246 0 9.499 4.253 9.499 9.5S21.246 25.5 16 25.5c-5.247 0-9.501-4.253-9.501-9.5S10.753 6.5 16 6.5z" /></symbol><symbol viewBox="0 0 16 19" id="copy"><path fill-rule="evenodd" fill="#777A84" d="M11 0H1.999C.899 0 0 .941 0 2.091V13h1.999V2H11V0zm3 3.994H5.999c-1.099 0-2 .95-2 2.112v10.782c0 1.161.901 2.112 2 2.112H14c1.099 0 2-.951 2-2.112V6.106c0-1.162-.901-2.112-2-2.112zM14 17H5.999V6H14v11z" /></symbol><symbol viewBox="0 0 13 13" id="cross"><path fill-rule="evenodd" fill="currentColor" d="M8.8 6.5l2.7-2.7c.6-.6.6-1.7 0-2.3-.6-.6-1.7-.6-2.3 0L6.5 4.2 3.8 1.5c-.6-.6-1.7-.6-2.3 0-.6.6-.6 1.7 0 2.3l2.7 2.7-2.7 2.7c-.6.6-.6 1.7 0 2.3.6.6 1.7.6 2.3 0l2.7-2.7 2.7 2.7c.6.6 1.7.6 2.3 0 .6-.6.6-1.7 0-2.3L8.8 6.5z" /></symbol><symbol class="m-1" viewBox="0 0 448 512" id="discord"><path fill="currentColor" d="M297.216 243.2c0 15.616-11.52 28.416-26.112 28.416-14.336 0-26.112-12.8-26.112-28.416s11.52-28.416 26.112-28.416c14.592 0 26.112 12.8 26.112 28.416zm-119.552-28.416c-14.592 0-26.112 12.8-26.112 28.416s11.776 28.416 26.112 28.416c14.592 0 26.112-12.8 26.112-28.416.256-15.616-11.52-28.416-26.112-28.416zM448 52.736V512c-64.494-56.994-43.868-38.128-118.784-107.776l13.568 47.36H52.48C23.552 451.584 0 428.032 0 398.848V52.736C0 23.552 23.552 0 52.48 0h343.04C424.448 0 448 23.552 448 52.736zm-72.96 242.688c0-82.432-36.864-149.248-36.864-149.248-36.864-27.648-71.936-26.88-71.936-26.88l-3.584 4.096c43.52 13.312 63.744 32.512 63.744 32.512-60.811-33.329-132.244-33.335-191.232-7.424-9.472 4.352-15.104 7.424-15.104 7.424s21.248-20.224 67.328-33.536l-2.56-3.072s-35.072-.768-71.936 26.88c0 0-36.864 66.816-36.864 149.248 0 0 21.504 37.12 78.08 38.912 0 0 9.472-11.52 17.152-21.248-32.512-9.728-44.8-30.208-44.8-30.208 3.766 2.636 9.976 6.053 10.496 6.4 43.21 24.198 104.588 32.126 159.744 8.96 8.96-3.328 18.944-8.192 29.44-15.104 0 0-12.8 20.992-46.336 30.464 7.68 9.728 16.896 20.736 16.896 20.736 56.576-1.792 78.336-38.912 78.336-38.912z" /></symbol><symbol viewBox="0 0 13 15" id="download"><path fill-rule="evenodd" fill="#395174" d="M0 15v-2h13v2H0zm6.822-5.113c-.266.297-.519-.034-.519-.034L3.201 5.677s-.472-.496.039-.496h1.749v-.849V.303s-.07-.297.331-.297h2.461c.288 0 .281.25.281.25V5.056h1.614c.621 0 .153.519.153.519S7.19 9.478 6.822 9.887z" /></symbol><symbol class="m-1" viewBox="0 0 24 24" id="email"><path fill-rule="evenodd" fill="currentColor" d="M12 0C5.4 0 0 5.4 0 12s5.4 12 12 12c2.3 0 4.6-.7 6.6-1.9.6-.4.7-1.2.3-1.7l-.5-.6c-.4-.5-1-.6-1.5-.2-1.4.9-3.1 1.4-4.8 1.4-4.9 0-8.9-4-8.9-8.9s4-8.9 8.9-8.9c4.8 0 8.9 2.8 8.9 7.7 0 1.9-1 3.9-2.8 4-.8 0-.8-.6-.7-1.5l1.1-5.9c.1-.7-.4-1.4-1.1-1.4h-2.2c-.3 0-.6.2-.6.6-.7-.9-2-1.1-2.9-1.1-3.6 0-6.7 3-6.7 7.3 0 3.2 1.8 5.1 4.6 5.1 1.3 0 2.8-.8 3.6-1.9.5 1.7 2 1.7 3.4 1.7 5.3 0 7.3-3.5 7.3-7.1C24 4.2 18.7 0 12 0zm-1 14.7c-1.1 0-1.7-.8-1.7-2 0-2.2 1.5-3.5 2.8-3.5 1.1 0 1.7.7 1.7 2 0 2.2-1.7 3.5-2.8 3.5z" /></symbol><symbol viewBox="0 0 200 200" id="en-GB"><circle cx="100" cy="100" r="100" fill="#f1f0f0" /><path d="M20.7 39.1c-7.9 10.2-13.8 22-17.2 34.8h52L20.7 39.1zM196.6 73.9c-3.4-12.8-9.4-24.6-17.2-34.8l-34.8 34.8h52zM3.4 126.1c3.4 12.8 9.4 24.6 17.2 34.8l34.8-34.8h-52zM160.9 20.7c-10.2-7.9-22-13.8-34.8-17.2v52l34.8-34.8zM39.1 179.3c10.2 7.9 22 13.8 34.8 17.2v-52l-34.8 34.8zM73.9 3.4c-12.8 3.4-24.6 9.4-34.8 17.2l34.8 34.8v-52zM126.1 196.6c12.8-3.4 24.6-9.4 34.8-17.2l-34.8-34.8v52zM144.5 126.1l34.8 34.8c7.9-10.2 13.8-22 17.2-34.8h-52z" fill="#2057a7" /><path d="M199.2 87H113V.8c-4.3-.6-8.6-.8-13-.8s-8.8.3-13 .8V87H.8c-.5 4.2-.8 8.6-.8 13s.3 8.8.8 13H87v86.1c4.3.6 8.6.8 13 .8s8.8-.3 13-.8V113h86.1c.6-4.3.8-8.6.8-13 .1-4.4-.2-8.8-.7-13z" fill="#d81f2a" /><path d="M126.1 126.1l44.6 44.6c2.1-2.1 4-4.2 5.9-6.4l-38.2-38.2h-12.3zM73.9 126.1l-44.6 44.6c2.1 2.1 4.2 4 6.4 5.9l38.2-38.2v-12.3zM73.9 73.9L29.3 29.3c-2.1 2.1-4 4.2-5.9 6.4l38.2 38.2h12.3zM126.1 73.9l44.6-44.6c-2.1-2.1-4.2-4-6.4-5.9l-38.2 38.2v12.3z" fill="#d81f2a" /></symbol><symbol viewBox="0 0 200 200" id="en-US"><path d="M100 0v21.7h62.2C145.1 8.1 123.5 0 100 0zM100 100H0c0 9 1.2 17.8 3.4 26.1h193.1s3.5-7 3.5-26.1H100zM37.8 178.3h124.4c9.1-7.3 17-16.1 23.1-26.1H14.7c6.1 10 14 18.8 23.1 26.1zM185.3 47.8H100v26.1h96.5c-2.5-9.3-6.3-18.1-11.2-26.1z" fill="#f1f0f0" /><path d="M196.6 73.9H100V100h100c0-9-1.2-17.8-3.4-26.1zM162.3 21.7H100v26.1h85.4c-6.1-10-13.9-18.8-23.1-26.1zM37.8 178.3c17 13.6 38.7 21.7 62.2 21.7s45.2-8.1 62.2-21.7H37.8zM3.4 126.1c2.6 9.3 6.4 18.1 11.3 26.1h170.6c4.9-8 8.7-16.8 11.2-26.1H3.4z" fill="#d81f2a" /><path d="M0 100C0 44.7 44.7 0 100 0v100H0z" fill="#2057a7" /></symbol><symbol class="m-1" viewBox="0 0 320 512" id="facebook"><path fill="currentColor" d="M279.14 288l14.22-92.66h-88.91v-60.13c0-25.35 12.42-50.06 52.24-50.06h40.42V6.26S260.43 0 225.36 0c-73.22 0-121.08 44.38-121.08 124.72v70.62H22.89V288h81.39v224h100.17V288z" /></symbol><symbol viewBox="0 0 13 13" id="first"><path fill-rule="evenodd" fill="currentColor" d="M8.1 6.5l3.7-4c.3-.3.3-.9 0-1.3-.3-.3-.9-.3-1.2 0L6.3 5.9c-.3.3-.3.9 0 1.2l4.3 4.6c.2.2.4.3.6.3.2 0 .4-.1.6-.3.3-.3.3-.9 0-1.3L8.1 6.5zm-5 0l3.7-4c.3-.3.3-.9 0-1.3-.3-.3-.9-.3-1.2 0L1.3 5.9c-.3.3-.3.9 0 1.2l4.3 4.6c.1.2.3.3.5.3s.4-.1.6-.3c.3-.3.3-.9 0-1.3L3.1 6.5z" /></symbol><symbol viewBox="0 0 19 17" id="forging"><path fill="currentColor" d="M5.8 16.7c.3.3.9.3 1.2 0L18.7 4.9c.3-.3.3-.9 0-1.2l-2.4-2.5c-.3-.3-.9-.3-1.2 0L6.4 10 3.9 7.6c-.3-.4-.9-.4-1.2 0L.3 10c-.3.3-.3.9 0 1.2l5.5 5.5z" /></symbol><symbol viewBox="0 0 200 200" id="fr-FR"><path d="M100 0C87.8 0 76.1 2.2 65.2 6.2v187.5c10.8 4 22.5 6.2 34.8 6.2 12.2 0 23.9-2.2 34.8-6.2V6.2c1.1.5-21.3-6.2-34.8-6.2z" fill="#f1f0f0" /><path d="M134.8 6.2v187.6C172.9 179.7 200 143 200 100s-27.1-79.7-65.2-93.8z" fill="#d81f2a" /><path d="M0 100c0 43 27.1 79.7 65.2 93.8V6.2C27.1 20.3 0 57 0 100z" fill="#2057a7" /></symbol><symbol class="m-1" viewBox="0 0 496 512" id="github"><path fill="currentColor" d="M165.9 397.4c0 2-2.3 3.6-5.2 3.6-3.3.3-5.6-1.3-5.6-3.6 0-2 2.3-3.6 5.2-3.6 3-.3 5.6 1.3 5.6 3.6zm-31.1-4.5c-.7 2 1.3 4.3 4.3 4.9 2.6 1 5.6 0 6.2-2s-1.3-4.3-4.3-5.2c-2.6-.7-5.5.3-6.2 2.3zm44.2-1.7c-2.9.7-4.9 2.6-4.6 4.9.3 2 2.9 3.3 5.9 2.6 2.9-.7 4.9-2.6 4.6-4.6-.3-1.9-3-3.2-5.9-2.9zM244.8 8C106.1 8 0 113.3 0 252c0 110.9 69.8 205.8 169.5 239.2 12.8 2.3 17.3-5.6 17.3-12.1 0-6.2-.3-40.4-.3-61.4 0 0-70 15-84.7-29.8 0 0-11.4-29.1-27.8-36.6 0 0-22.9-15.7 1.6-15.4 0 0 24.9 2 38.6 25.8 21.9 38.6 58.6 27.5 72.9 20.9 2.3-16 8.8-27.1 16-33.7-55.9-6.2-112.3-14.3-112.3-110.5 0-27.5 7.6-41.3 23.6-58.9-2.6-6.5-11.1-33.3 2.6-67.9 20.9-6.5 69 27 69 27 20-5.6 41.5-8.5 62.8-8.5s42.8 2.9 62.8 8.5c0 0 48.1-33.6 69-27 13.7 34.7 5.2 61.4 2.6 67.9 16 17.7 25.8 31.5 25.8 58.9 0 96.5-58.9 104.2-114.8 110.5 9.2 7.9 17 22.9 17 46.4 0 33.7-.3 75.4-.3 83.6 0 6.5 4.6 14.4 17.3 12.1C428.2 457.8 496 362.9 496 252 496 113.3 383.5 8 244.8 8zM97.2 352.9c-1.3 1-1 3.3.7 5.2 1.6 1.6 3.9 2.3 5.2 1 1.3-1 1-3.3-.7-5.2-1.6-1.6-3.9-2.3-5.2-1zm-10.8-8.1c-.7 1.3.3 2.9 2.3 3.9 1.6 1 3.6.7 4.3-.7.7-1.3-.3-2.9-2.3-3.9-2-.6-3.6-.3-4.3.7zm32.4 35.6c-1.6 1.3-1 4.3 1.3 6.2 2.3 2.3 5.2 2.6 6.5 1 1.3-1.3.7-4.3-1.3-6.2-2.2-2.3-5.2-2.6-6.5-1zm-11.4-14.7c-1.6 1-1.6 3.6 0 5.9 1.6 2.3 4.3 3.3 5.6 2.3 1.6-1.3 1.6-3.9 0-6.2-1.4-2.3-4-3.3-5.6-2z" /></symbol><symbol viewBox="0 0 17 17" id="globe"><path fill-rule="evenodd" fill="currentColor" d="M8.499.5C4.099.5.5 4.1.5 8.499.5 12.9 4.099 16.5 8.499 16.5c4.401 0 8-3.6 8-8.001C16.499 4.1 12.9.5 8.499.5zM13.7 5.8c.399 0 .699.3 1.099.3-.299.4-1.599.4-1.999-.1.299-.1.499-.2.9-.2zM1.5 8.499c0-.399 0-.799.1-1.299.1 0 .199.099.299.099 0 0 .1.101.1.201 0 .299.3.5.501.5.8.1 1.1.799 1.8 1 .2.099.1.299 0 .5-.6.8-.1 1.4.4 1.9.5.399.5.8.6 1.399 0 .701.1 1.501.399 2.201-2.5-1.2-4.199-3.6-4.199-6.501zM8.499 15.5c-.7 0-1.5-.1-2.1-.3a.64.64 0 010-.601c.4-.799.801-1.5 1.3-2.199.2-.2.401-.4.401-.7 0-.2.1-.5.199-.7.3-.5.2-.8-.199-.901-.801-.199-1.201-.899-1.801-1.2-.6-.299-1.2-.499-1.699-.199-.2.099-.501.199-.501-.1 0-.4-.499-.7-.399-1.1-.1 0-.2 0-.3.1-.1.1-.201.199-.401.1-.2-.2-.1-.401-.1-.6.1-.2.2-.3.401-.4.4-.1.799-.1 1 .4.3-.9.9-1.4 1.499-1.801 0 0 .8-.699.9-.699.1 0 .2.199.401.3.199 0 .299 0 .299-.2.1-.5-.199-1.1-.6-1.2 0-.1.1-.1.1-.1.301-.101.7-.3.6-.601 0-.399-.399-.599-.8-.599-.2 0-.4 0-.599.099-.401.201-.9.401-1.5.401 1.099-.801 2.5-1.2 3.899-1.2h.8c-.6.1-1.199.299-1.6.5.6.1.7.4.501.9-.1.2 0 .399.199.5.2.1.4.1.5-.101.2-.299.6-.399.9-.5.401-.099.7-.299 1-.699 0-.1.101-.1.201-.201.599.201 1.2.601 1.8 1.001-.1 0-.1.1-.201.1-.199.2-.5.299-.199.7.099.2 0 .3-.101.4-.2.1-.299 0-.399-.1-.101-.1-.101-.3-.401-.3-.099.2-.4.3-.4.6.5 0 .4.4.5.7-.599.1-.8.4-.5.9.101.2-.099.3-.199.4-.401.6-.801.999-.801 1.7 0 .7.5 1.4 1.301 1.299.899-.099.899-.099 1.199.701 0 .099.101.2.101.3.1.2.2.4.1.6-.301.8.1 1.399.4 2 .099.199.199.3.299.399-1.299 1.401-3 2.201-5 2.201z" /></symbol><symbol viewBox="0 0 47 38" id="group"><style>#group .st1{fill-rule:evenodd;clip-rule:evenodd;fill:#037cff}</style><switch><g><g id="group_Forma_1_копия_2_1_" opacity=".471"><path class="st1" d="M32.3 9.1c1 1.8 2.9 3.1 5 3.1 3.1 0 5.8-2.8 5.8-6.1 0-3.2-2.7-6.1-5.8-6.1-2.4 0-4.6 1.7-5.4 4 .5.9.7 2 .7 3.1 0 .7-.1 1.4-.3 2zm-22.6 3c2.1 0 4-1.3 5-3.1-.2-.6-.3-1.3-.3-1.9 0-1.1.3-2.1.7-3.1-.8-2.3-3-4-5.4-4-3.1 0-5.8 2.8-5.8 6.1 0 3.2 2.7 6 5.8 6zm27.6 2.1c-2.6 0-5.1 1.5-6.9 3.9 4 2.4 6.9 7.6 6.9 13.6 0 .2 0 .4-.1.6 4.9 0 9.7-1.8 9.7-5.3.1-7.1-4.5-12.8-9.6-12.8zm-27.6-.1C4.6 14.1 0 19.9 0 27c0 3.6 4.9 5.3 9.7 5.3 0-.2-.1-.4-.1-.6 0-6 2.9-11.2 6.9-13.6-1.7-2.5-4.2-4-6.8-4z" id="group_Forma_1_копия_2" /></g><g id="group_Forma_1_копия_1_"><path class="st1" d="M23.5 17.8c3.1 0 5.8-2.8 5.8-6.1 0-3.2-2.7-6.1-5.8-6.1-3.1 0-5.8 2.8-5.8 6.1 0 3.2 2.7 6.1 5.8 6.1zm0 2c-5.1 0-9.7 5.7-9.7 12.8 0 7.1 19.4 7.1 19.4 0s-4.6-12.8-9.7-12.8z" id="group_Forma_1_копия" /></g></g></switch></symbol><symbol viewBox="0 0 330 330" fill="currentColor" id="information"><path d="M165 0C74.019 0 0 74.02 0 165.001 0 255.982 74.019 330 165 330s165-74.018 165-164.999S255.981 0 165 0zm0 300c-74.44 0-135-60.56-135-134.999S90.56 30 165 30s135 60.562 135 135.001C300 239.44 239.439 300 165 300z" /><path d="M164.998 70c-11.026 0-19.996 8.976-19.996 20.009 0 11.023 8.97 19.991 19.996 19.991 11.026 0 19.996-8.968 19.996-19.991 0-11.033-8.97-20.009-19.996-20.009zM165 140c-8.284 0-15 6.716-15 15v90c0 8.284 6.716 15 15 15 8.284 0 15-6.716 15-15v-90c0-8.284-6.716-15-15-15z" /></symbol><symbol class="m-1" viewBox="0 0 448 512" id="instagram"><path fill="currentColor" d="M224.1 141c-63.6 0-114.9 51.3-114.9 114.9s51.3 114.9 114.9 114.9S339 319.5 339 255.9 287.7 141 224.1 141zm0 189.6c-41.1 0-74.7-33.5-74.7-74.7s33.5-74.7 74.7-74.7 74.7 33.5 74.7 74.7-33.6 74.7-74.7 74.7zm146.4-194.3c0 14.9-12 26.8-26.8 26.8-14.9 0-26.8-12-26.8-26.8s12-26.8 26.8-26.8 26.8 12 26.8 26.8zm76.1 27.2c-1.7-35.9-9.9-67.7-36.2-93.9-26.2-26.2-58-34.4-93.9-36.2-37-2.1-147.9-2.1-184.9 0-35.8 1.7-67.6 9.9-93.9 36.1s-34.4 58-36.2 93.9c-2.1 37-2.1 147.9 0 184.9 1.7 35.9 9.9 67.7 36.2 93.9s58 34.4 93.9 36.2c37 2.1 147.9 2.1 184.9 0 35.9-1.7 67.7-9.9 93.9-36.2 26.2-26.2 34.4-58 36.2-93.9 2.1-37 2.1-147.8 0-184.8zM398.8 388c-7.8 19.6-22.9 34.7-42.6 42.6-29.5 11.7-99.5 9-132.1 9s-102.7 2.6-132.1-9c-19.6-7.8-34.7-22.9-42.6-42.6-11.7-29.5-9-99.5-9-132.1s-2.6-102.7 9-132.1c7.8-19.6 22.9-34.7 42.6-42.6 29.5-11.7 99.5-9 132.1-9s102.7-2.6 132.1 9c19.6 7.8 34.7 22.9 42.6 42.6 11.7 29.5 9 99.5 9 132.1s2.7 102.7-9 132.1z" /></symbol><symbol viewBox="0 0 200 200" id="it-IT"><path d="M100 0C87.8 0 76.1 2.2 65.2 6.2v187.5c10.8 4 22.5 6.2 34.8 6.2 12.2 0 23.9-2.2 34.8-6.2V6.2c1.1.5-21.3-6.2-34.8-6.2z" fill="#f1f0f0" /><path d="M134.8 6.2v187.6C172.9 179.7 200 143 200 100s-27.1-79.7-65.2-93.8z" fill="#d81f2a" /><path d="M0 100c0 43 27.1 79.7 65.2 93.8V6.2C27.1 20.3 0 57 0 100z" fill="#009246" /></symbol><symbol viewBox="0 0 13 14" id="key"><path fill-rule="evenodd" fill="currentColor" d="M5.833 10.537l-.983-.993 3.379-3.42a3.202 3.202 0 003.822-.554 3.308 3.308 0 000-4.636 3.214 3.214 0 00-4.582 0C6.432 1.982 6.26 3.559 6.921 4.8L.269 11.532a.948.948 0 000 1.325.921.921 0 001.309 0l.981.993a.46.46 0 00.655 0l.655-.662a.471.471 0 000-.662l-.982-.994.655-.664.982.995c.18.183.473.183.654 0l.655-.662a.476.476 0 000-.664zm2.944-8.278a1.378 1.378 0 011.965 0 1.418 1.418 0 010 1.986 1.38 1.38 0 01-1.965 0 1.42 1.42 0 010-1.986z" /></symbol><symbol viewBox="0 0 16 17" id="known-wallet"><path fill-rule="evenodd" fill="currentColor" d="M7.1 14.88H3.17c-.6 0-.92-1.14-.83-1.88.21-2.7 1.88-4.03 3.24-5.3a3.837 3.837 0 003.27-.12c.02.01.03.02.05.04.5.47 1 .95 1.46 1.49.1.12.15.17.3.38.15.2 1.71-.93 1.27-1.45-.16-.16-.22-.26-.33-.38-.44-.5-.88-.92-1.29-1.32.45-.64.72-1.42.72-2.26a3.93 3.93 0 00-7.86 0c0 .93.34 1.78.88 2.45C2.5 8.03.22 10.51.22 13.83c0 1.89.91 3.01 1.97 3.01h3.93c.91.01 1.53-1.96.98-1.96zm0-12.76c1.08 0 1.96.88 1.96 1.96S8.18 6.04 7.1 6.04s-1.96-.88-1.96-1.96.88-1.96 1.96-1.96zm8.69 8.67l-.69-.67a.476.476 0 00-.34-.14.46.46 0 00-.34.14l-3.32 3.26-1.5-1.47c-.09-.09-.21-.14-.34-.14s-.25.05-.34.14l-.69.67a.46.46 0 00-.14.34c0 .13.05.24.14.34l1.83 1.79.69.67c.09.09.21.14.34.14s.25-.05.34-.14l.69-.67 3.67-3.59c.09-.09.14-.2.14-.34a.388.388 0 00-.14-.33z" /></symbol><symbol viewBox="0 0 13 13" id="last"><path fill-rule="evenodd" fill="currentColor" d="M6.7 5.9L2.5 1.3c-.3-.3-.9-.3-1.2 0-.3.3-.3.9 0 1.3l3.7 4-3.7 4c-.3.3-.3.9 0 1.3.1 0 .3.1.6.1.2 0 .4-.1.6-.3l4.3-4.6c.3-.3.3-.9-.1-1.2zm5 0L7.5 1.3c-.3-.3-.9-.3-1.2 0s-.3.9 0 1.3l3.7 4-3.7 4c-.3.3-.3.9 0 1.3.1 0 .3.1.6.1.2 0 .4-.1.6-.3l4.3-4.6c.3-.3.3-.9-.1-1.2z" /></symbol><symbol viewBox="0 0 21 18" id="locked-balance"><defs><path id="locked-balance_a" d="M0 0h21v18H0z" /></defs><path fill="currentColor" d="M8.5 16.6c-1.3-.9-2.3-2.1-2.9-3.6H1.2C.6 13 0 12.5 0 11.8V7c0-.5.5-1 1-1h1V4c0-1 .3-2 .9-2.8S4.5 0 5.5 0s2 .4 2.6 1.2c.4.6.7 1.2.8 2 3.8-2.2 8.7-1 11 2.8s1 8.7-2.8 11c-2.7 1.5-6.1 1.4-8.6-.4zM7 10c0 3.3 2.7 6 6 6s6-2.7 6-6-2.7-6-6-6-6 2.7-6 6zM4 4v2h2.1c.2-.5.5-.9.9-1.3V4c0-1.2-.1-2.2-1.5-2.2S4 2.8 4 4zm9 7c-.6 0-1-.4-1-1V7c0-.6.4-1 1-1s1 .4 1 1v2h2c.6 0 1 .4 1 1s-.4 1-1 1h-3z" /></symbol><symbol class="m-1" viewBox="0 0 512 512" id="medium"><path fill="currentColor" d="M71.5 142.3c.6-5.9-1.7-11.8-6.1-15.8L20.3 72.1V64h140.2l108.4 237.7L364.2 64h133.7v8.1l-38.6 37c-3.3 2.5-5 6.7-4.3 10.8v272c-.7 4.1 1 8.3 4.3 10.8l37.7 37v8.1H307.3v-8.1l39.1-37.9c3.8-3.8 3.8-5 3.8-10.8V171.2L241.5 447.1h-14.7L100.4 171.2v184.9c-1.1 7.8 1.5 15.6 7 21.2l50.8 61.6v8.1h-144v-8L65 377.3c5.4-5.6 7.9-13.5 6.5-21.2V142.3z" /></symbol><symbol viewBox="0 0 15 13" id="menu"><path fill-rule="evenodd" fill="currentColor" d="M13.499 3h-12a1.5 1.5 0 010-3h12a1.5 1.5 0 110 3zm-12 2h6a1.5 1.5 0 110 3h-6a1.5 1.5 0 010-3zm0 5h8a1.5 1.5 0 110 3h-8a1.5 1.5 0 010-3z" /></symbol><symbol class="m-1" viewBox="0 0 352 512" id="minds"><path fill="currentColor" d="M96.06 454.35c.01 6.29 1.87 12.45 5.36 17.69l17.09 25.69a31.99 31.99 0 0026.64 14.28h61.71a31.99 31.99 0 0026.64-14.28l17.09-25.69a31.989 31.989 0 005.36-17.69l.04-38.35H96.01l.05 38.35zM0 176c0 44.37 16.45 84.85 43.56 115.78 16.52 18.85 42.36 58.23 52.21 91.45.04.26.07.52.11.78h160.24c.04-.26.07-.51.11-.78 9.85-33.22 35.69-72.6 52.21-91.45C335.55 260.85 352 220.37 352 176 352 78.61 272.91-.3 175.45 0 73.44.31 0 82.97 0 176zm176-80c-44.11 0-80 35.89-80 80 0 8.84-7.16 16-16 16s-16-7.16-16-16c0-61.76 50.24-112 112-112 8.84 0 16 7.16 16 16s-7.16 16-16 16z" /></symbol><symbol viewBox="0 0 19 17" id="missed-round"><path fill="currentColor" d="M12 17c-.6 0-1-.4-1-1V1c0-.6.4-1 1-1h3c.6 0 1 .4 1 1v15c0 .6-.4 1-1 1h-3zm-8 0c-.6 0-1-.4-1-1V1c0-.6.4-1 1-1h3c.6 0 1 .4 1 1v15c0 .6-.4 1-1 1H4z" /></symbol><symbol viewBox="0 0 30 30" id="moon"><g transform="translate(224 -82)"><g clip-path="url(#moon_a)"><use xlink:href="#moon_path0_fill" transform="translate(-218 88)" fill="#585a68" /></g></g><defs><path id="moon_path0_fill" fill-rule="evenodd" d="M11.553 13.248c-3.088-.382-5.555-2.838-5.891-5.856-.31-2.777 1.135-5.253 3.386-6.516.438-.245.257-.9-.247-.875a9.362 9.362 0 00-1.725.243C3.182 1.168.284 4.487.02 8.387c-.354 5.25 3.906 9.615 9.213 9.615 4.046 0 7.483-2.538 8.73-6.07.167-.472-.426-.827-.794-.482-1.423 1.332-3.435 2.069-5.617 1.798z" /></defs></symbol><clipPath id="moon_a" clip-rule="evenodd"><path d="M-224 82h30v30h-30V82z" fill="#FFF" /></clipPath><symbol viewBox="0 0 30 30" id="moon-hover"><style>#moon-hover .st0{enable-background:new}</style><g id="moon-hover_Эллипс_563_1_" class="st0"><path d="M15 4c.6 0 1-.4 1-1V1c0-.6-.4-1-1-1s-1 .4-1 1v2c0 .6.4 1 1 1zm14 10h-2c-.6 0-1 .4-1 1s.4 1 1 1h2c.6 0 1-.4 1-1s-.4-1-1-1zm-5.5-8.9l-.7.7c-.4.4-.4 1 0 1.4.4.4 1 .4 1.4 0l.7-.7c.4-.4.4-1 0-1.4-.4-.4-1-.4-1.4 0zm-5 1.9c-3 0-5.5 2.5-5.5 5.5s2.5 5.5 5.5 5.5 5.5-2.5 5.5-5.5S21.5 7 18.5 7z" fill-rule="evenodd" clip-rule="evenodd" fill="#fad528" id="moon-hover_Эллипс_563" /></g><g id="moon-hover_moon_1_" class="st0"><path d="M15 26c-.6 0-1 .4-1 1v2c0 .6.4 1 1 1s1-.4 1-1v-2c0-.6-.4-1-1-1zM3 14H1c-.6 0-1 .4-1 1s.4 1 1 1h2c.6 0 1-.4 1-1s-.4-1-1-1zm21.9 9.5l-.7-.7c-.4-.4-1-.4-1.4 0-.4.4-.4 1 0 1.4l.7.7c.4.4 1 .4 1.4 0 .4-.4.4-1 0-1.4zm-19.1-.7l-.7.7c-.4.4-.4 1 0 1.4.4.4 1 .4 1.4 0l.7-.7c.4-.4.4-1 0-1.4-.4-.4-1-.4-1.4 0zm0-15.6c.4.4 1 .4 1.4 0 .4-.4.4-1 0-1.4l-.7-.7c-.4-.4-1-.4-1.4 0-.4.4-.4 1 0 1.4l.7.7zm17.4 10.2c-1.4 1.3-3.4 2.1-5.6 1.8-3.1-.4-5.6-2.8-5.9-5.9-.3-2.8 1.1-5.3 3.4-6.5.4-.2.2-.8-.3-.8-.6 0-1.1.1-1.7.2-3.9 1-6.8 4.3-7.1 8.2-.3 5.2 3.9 9.6 9.2 9.6 4 0 7.5-2.5 8.7-6.1.2-.4-.4-.8-.7-.5z" fill-rule="evenodd" clip-rule="evenodd" fill="#585a68" id="moon-hover_moon" /></g></symbol><symbol viewBox="0 0 47 38" id="multi-signature"><switch><g><path fill="currentColor" d="M32.3 9.1c1 1.8 2.9 3.1 5 3.1 3.1 0 5.8-2.8 5.8-6.1 0-3.2-2.7-6.1-5.8-6.1-2.4 0-4.6 1.7-5.4 4 .5.9.7 2 .7 3.1 0 .7-.1 1.4-.3 2zm-22.6 3c2.1 0 4-1.3 5-3.1-.2-.6-.3-1.3-.3-1.9 0-1.1.3-2.1.7-3.1-.8-2.3-3-4-5.4-4-3.1 0-5.8 2.8-5.8 6.1 0 3.2 2.7 6 5.8 6zm27.6 2.1c-2.6 0-5.1 1.5-6.9 3.9 4 2.4 6.9 7.6 6.9 13.6 0 .2 0 .4-.1.6 4.9 0 9.7-1.8 9.7-5.3.1-7.1-4.5-12.8-9.6-12.8zm-27.6-.1C4.6 14.1 0 19.9 0 27c0 3.6 4.9 5.3 9.7 5.3 0-.2-.1-.4-.1-.6 0-6 2.9-11.2 6.9-13.6-1.7-2.5-4.2-4-6.8-4z" opacity=".471" /><path d="M23.5 17.8c3.1 0 5.8-2.8 5.8-6.1 0-3.2-2.7-6.1-5.8-6.1s-5.8 2.8-5.8 6.1c0 3.2 2.7 6.1 5.8 6.1zm0 2c-5.1 0-9.7 5.7-9.7 12.8s19.4 7.1 19.4 0-4.6-12.8-9.7-12.8z" /></g></switch></symbol><symbol viewBox="0 0 13 13" id="next"><path fill-rule="evenodd" fill="currentColor" d="M9.7 5.9L5.5 1.3c-.3-.3-.9-.3-1.2 0-.3.3-.3.9 0 1.3l3.7 4-3.7 4c-.3.3-.3.9 0 1.3.1 0 .3.1.6.1.2 0 .4-.1.6-.3l4.3-4.6c.3-.3.3-.9-.1-1.2z" /></symbol><symbol viewBox="0 0 200 200" id="nl-NL"><path d="M193.7 65.3H6.7C2.7 76.1.5 87.8.5 100.1c0 12.2 2.2 23.9 6.2 34.8h187.1c4-10.8 6.2-22.5 6.2-34.8-.1-12.3-2.3-24-6.3-34.8z" fill="#f0f0f0" /><path d="M100.2.1C57.3.1 20.8 27.2 6.7 65.3h187.1C179.6 27.3 143.1.1 100.2.1z" fill="#a2001d" /><path d="M100.2 200c42.9 0 79.4-27.1 93.5-65.2H6.7c14.1 38.1 50.6 65.2 93.5 65.2z" fill="#0052b4" /></symbol><symbol viewBox="0 0 19 17" id="not-forging"><path fill="currentColor" d="M5.8 8.5L1.3 13c-.4.4-.4 1.1 0 1.5l2.2 2.2c.4.4 1.1.4 1.5 0l4.5-4.5 4.5 4.5c.4.4 1.1.4 1.5 0l2.2-2.2c.4-.4.4-1.1 0-1.5l-4.5-4.5L17.7 4c.4-.4.4-1.1 0-1.5L15.5.3c-.4-.4-1.1-.4-1.5 0L9.5 4.8 5 .3c-.4-.4-1-.4-1.5 0L1.3 2.5C.9 3 .9 3.6 1.3 4l4.5 4.5z" /></symbol><symbol viewBox="0 0 200 200" id="pl-PL"><path d="M100 0C44.8 0 0 44.8 0 100h200C200 44.8 155.2 0 100 0z" fill="#f0f0f0" /><path d="M200 100c0 55.2-44.8 100-100 100S0 155.2 0 100" fill="#d80027" /></symbol><symbol viewBox="0 0 13 13" id="previous"><path fill-rule="evenodd" fill="currentColor" d="M6.1 6.5l3.7-4c.3-.3.3-.9 0-1.3-.3-.3-.9-.3-1.2 0L4.3 5.9c-.3.3-.3.9 0 1.2l4.3 4.6c.1.2.3.3.5.3s.4-.1.6-.3c.3-.3.3-.9 0-1.3L6.1 6.5z" /></symbol><symbol viewBox="0 0 200 200" id="pt-BR"><circle cx="100" cy="100" r="100" fill="#6da544" /><path fill="#ffda44" d="M100 39.1l82.6 60.9-82.6 60.9L17.4 100z" /><circle cx="100" cy="100" r="34.8" fill="#f0f0f0" /><path d="M82.6 97.8c-6 0-11.9.9-17.4 2.6.2 19 15.7 34.3 34.8 34.3 11.8 0 22.2-5.9 28.5-14.8-10.8-13.4-27.3-22.1-45.9-22.1zM134.1 106.7c.4-2.2.6-4.4.6-6.7 0-19.2-15.6-34.8-34.8-34.8-14.3 0-26.6 8.7-32 21.1 4.7-1 9.6-1.5 14.6-1.5 20.3 0 38.6 8.4 51.6 21.9z" fill="#0052b4" /></symbol><symbol viewBox="0 0 29 29" id="qr"><path fill-rule="evenodd" fill="#FFF" d="M25.989 29.004V25.99h3.014v3.014h-3.014zM20.999 24v-3h-2v8l-3.007.003V15.991L24 16v3h1.999v-3l3.004-.009v.001L28.999 24h-8zM15.992-.004h13.011v13.012H15.992V-.004zM18.999 10h7V3h-7v7zm2.011-4.985h2.974v2.974H21.01V5.015zM-.004 15.992h13.011v13.011H-.004V15.992zM3 26h6.999v-7H3v7zm2.015-4.99h2.974v2.974H5.015V21.01zM-.004-.004h13.011v13.012H-.004V-.004zM3 10h6.999V3H3v7zm2.015-4.985h2.974v2.974H5.015V5.015zm18.982 23.989h-3.014V25.99h3.014v3.014z" /></symbol><symbol class="m-1" viewBox="0 0 512 512" id="reddit"><path fill="currentColor" d="M440.3 203.5c-15 0-28.2 6.2-37.9 15.9-35.7-24.7-83.8-40.6-137.1-42.3L293 52.3l88.2 19.8c0 21.6 17.6 39.2 39.2 39.2 22 0 39.7-18.1 39.7-39.7s-17.6-39.7-39.7-39.7c-15.4 0-28.7 9.3-35.3 22l-97.4-21.6c-4.9-1.3-9.7 2.2-11 7.1L246.3 177c-52.9 2.2-100.5 18.1-136.3 42.8-9.7-10.1-23.4-16.3-38.4-16.3-55.6 0-73.8 74.6-22.9 100.1-1.8 7.9-2.6 16.3-2.6 24.7 0 83.8 94.4 151.7 210.3 151.7 116.4 0 210.8-67.9 210.8-151.7 0-8.4-.9-17.2-3.1-25.1 49.9-25.6 31.5-99.7-23.8-99.7zM129.4 308.9c0-22 17.6-39.7 39.7-39.7 21.6 0 39.2 17.6 39.2 39.7 0 21.6-17.6 39.2-39.2 39.2-22 .1-39.7-17.6-39.7-39.2zm214.3 93.5c-36.4 36.4-139.1 36.4-175.5 0-4-3.5-4-9.7 0-13.7 3.5-3.5 9.7-3.5 13.2 0 27.8 28.5 120 29 149 0 3.5-3.5 9.7-3.5 13.2 0 4.1 4 4.1 10.2.1 13.7zm-.8-54.2c-21.6 0-39.2-17.6-39.2-39.2 0-22 17.6-39.7 39.2-39.7 22 0 39.7 17.6 39.7 39.7-.1 21.5-17.7 39.2-39.7 39.2z" /></symbol><symbol viewBox="0 0 13 13" id="search"><path fill-rule="evenodd" fill="currentColor" d="M12.7 11l-1-1c.8-1.1 1.1-2.3 1.1-3.6 0-.9-.2-1.7-.5-2.5s-.8-1.5-1.3-2c-.6-.6-1.3-1-2.1-1.4C8.1.2 7.3 0 6.4 0c-.9 0-1.7.2-2.5.5s-1.5.8-2 1.4C1.3 2.5.9 3.2.5 4 .2 4.7 0 5.5 0 6.4c0 .9.2 1.7.5 2.5s.8 1.5 1.4 2.1c.6.6 1.3 1 2.1 1.4.8.3 1.6.5 2.5.5 1.3 0 2.5-.4 3.6-1.1l1 1c.2.2.5.3.8.3.3 0 .6-.1.8-.3.2-.2.3-.5.3-.8 0-.5-.1-.8-.3-1zM9.1 9.1c-.7.7-1.6 1.1-2.6 1.1s-1.9-.4-2.6-1.1c-.7-.7-1.1-1.6-1.1-2.6s.4-1.9 1.1-2.6c.7-.7 1.6-1.1 2.6-1.1s1.9.4 2.6 1.1c.7.7 1.1 1.6 1.1 2.6s-.3 1.9-1.1 2.6z" /></symbol><symbol viewBox="0 0 448 512" id="second-passphrase"><path fill-rule="evenodd" fill="currentColor" d="M400 224h-24v-72C376 68.2 307.8 0 224 0S72 68.2 72 152v72H48c-26.5 0-48 21.5-48 48v192c0 26.5 21.5 48 48 48h352c26.5 0 48-21.5 48-48V272c0-26.5-21.5-48-48-48zm-104 0H152v-72c0-39.7 32.3-72 72-72s72 32.3 72 72v72z" /></symbol><symbol class="m-1" viewBox="0 0 448 512" id="slack"><path fill="currentColor" d="M94.12 315.1c0 25.9-21.16 47.06-47.06 47.06S0 341 0 315.1c0-25.9 21.16-47.06 47.06-47.06h47.06v47.06zm23.72 0c0-25.9 21.16-47.06 47.06-47.06s47.06 21.16 47.06 47.06v117.84c0 25.9-21.16 47.06-47.06 47.06s-47.06-21.16-47.06-47.06V315.1zm47.06-188.98c-25.9 0-47.06-21.16-47.06-47.06S139 32 164.9 32s47.06 21.16 47.06 47.06v47.06H164.9zm0 23.72c25.9 0 47.06 21.16 47.06 47.06s-21.16 47.06-47.06 47.06H47.06C21.16 243.96 0 222.8 0 196.9s21.16-47.06 47.06-47.06H164.9zm188.98 47.06c0-25.9 21.16-47.06 47.06-47.06 25.9 0 47.06 21.16 47.06 47.06s-21.16 47.06-47.06 47.06h-47.06V196.9zm-23.72 0c0 25.9-21.16 47.06-47.06 47.06-25.9 0-47.06-21.16-47.06-47.06V79.06c0-25.9 21.16-47.06 47.06-47.06 25.9 0 47.06 21.16 47.06 47.06V196.9zM283.1 385.88c25.9 0 47.06 21.16 47.06 47.06 0 25.9-21.16 47.06-47.06 47.06-25.9 0-47.06-21.16-47.06-47.06v-47.06h47.06zm0-23.72c-25.9 0-47.06-21.16-47.06-47.06 0-25.9 21.16-47.06 47.06-47.06h117.84c25.9 0 47.06 21.16 47.06 47.06 0 25.9-21.16 47.06-47.06 47.06H283.1z" /></symbol><symbol class="m-1" viewBox="0 0 640 512" id="soundcloud"><path fill="currentColor" d="M111.4 256.3l5.8 65-5.8 68.3c-.3 2.5-2.2 4.4-4.4 4.4s-4.2-1.9-4.2-4.4l-5.6-68.3 5.6-65c0-2.2 1.9-4.2 4.2-4.2 2.2 0 4.1 2 4.4 4.2zm21.4-45.6c-2.8 0-4.7 2.2-5 5l-5 105.6 5 68.3c.3 2.8 2.2 5 5 5 2.5 0 4.7-2.2 4.7-5l5.8-68.3-5.8-105.6c0-2.8-2.2-5-4.7-5zm25.5-24.1c-3.1 0-5.3 2.2-5.6 5.3l-4.4 130 4.4 67.8c.3 3.1 2.5 5.3 5.6 5.3 2.8 0 5.3-2.2 5.3-5.3l5.3-67.8-5.3-130c0-3.1-2.5-5.3-5.3-5.3zM7.2 283.2c-1.4 0-2.2 1.1-2.5 2.5L0 321.3l4.7 35c.3 1.4 1.1 2.5 2.5 2.5s2.2-1.1 2.5-2.5l5.6-35-5.6-35.6c-.3-1.4-1.1-2.5-2.5-2.5zm23.6-21.9c-1.4 0-2.5 1.1-2.5 2.5l-6.4 57.5 6.4 56.1c0 1.7 1.1 2.8 2.5 2.8s2.5-1.1 2.8-2.5l7.2-56.4-7.2-57.5c-.3-1.4-1.4-2.5-2.8-2.5zm25.3-11.4c-1.7 0-3.1 1.4-3.3 3.3L47 321.3l5.8 65.8c.3 1.7 1.7 3.1 3.3 3.1 1.7 0 3.1-1.4 3.1-3.1l6.9-65.8-6.9-68.1c0-1.9-1.4-3.3-3.1-3.3zm25.3-2.2c-1.9 0-3.6 1.4-3.6 3.6l-5.8 70 5.8 67.8c0 2.2 1.7 3.6 3.6 3.6s3.6-1.4 3.9-3.6l6.4-67.8-6.4-70c-.3-2.2-2-3.6-3.9-3.6zm241.4-110.9c-1.1-.8-2.8-1.4-4.2-1.4-2.2 0-4.2.8-5.6 1.9-1.9 1.7-3.1 4.2-3.3 6.7v.8l-3.3 176.7 1.7 32.5 1.7 31.7c.3 4.7 4.2 8.6 8.9 8.6s8.6-3.9 8.6-8.6l3.9-64.2-3.9-177.5c-.4-3-2-5.8-4.5-7.2zm-26.7 15.3c-1.4-.8-2.8-1.4-4.4-1.4s-3.1.6-4.4 1.4c-2.2 1.4-3.6 3.9-3.6 6.7l-.3 1.7-2.8 160.8s0 .3 3.1 65.6v.3c0 1.7.6 3.3 1.7 4.7 1.7 1.9 3.9 3.1 6.4 3.1 2.2 0 4.2-1.1 5.6-2.5 1.7-1.4 2.5-3.3 2.5-5.6l.3-6.7 3.1-58.6-3.3-162.8c-.3-2.8-1.7-5.3-3.9-6.7zm-111.4 22.5c-3.1 0-5.8 2.8-5.8 6.1l-4.4 140.6 4.4 67.2c.3 3.3 2.8 5.8 5.8 5.8 3.3 0 5.8-2.5 6.1-5.8l5-67.2-5-140.6c-.2-3.3-2.7-6.1-6.1-6.1zm376.7 62.8c-10.8 0-21.1 2.2-30.6 6.1-6.4-70.8-65.8-126.4-138.3-126.4-17.8 0-35 3.3-50.3 9.4-6.1 2.2-7.8 4.4-7.8 9.2v249.7c0 5 3.9 8.6 8.6 9.2h218.3c43.3 0 78.6-35 78.6-78.3.1-43.6-35.2-78.9-78.5-78.9zm-296.7-60.3c-4.2 0-7.5 3.3-7.8 7.8l-3.3 136.7 3.3 65.6c.3 4.2 3.6 7.5 7.8 7.5 4.2 0 7.5-3.3 7.5-7.5l3.9-65.6-3.9-136.7c-.3-4.5-3.3-7.8-7.5-7.8zm-53.6-7.8c-3.3 0-6.4 3.1-6.4 6.7l-3.9 145.3 3.9 66.9c.3 3.6 3.1 6.4 6.4 6.4 3.6 0 6.4-2.8 6.7-6.4l4.4-66.9-4.4-145.3c-.3-3.6-3.1-6.7-6.7-6.7zm26.7 3.4c-3.9 0-6.9 3.1-6.9 6.9L227 321.3l3.9 66.4c.3 3.9 3.1 6.9 6.9 6.9s6.9-3.1 6.9-6.9l4.2-66.4-4.2-141.7c0-3.9-3-6.9-6.9-6.9z" /></symbol><symbol class="m-1" viewBox="0 0 40 40" id="steemit"><path fill="currentColor" d="M32.7 11.38a15.167 15.167 0 00-5.338-3.457c1.132-3.33 5.146-4.542 5.146-4.542S23.142-1.48 12.8.459c-3.448.549-6.754 2.667-9.172 5.461a14.37 14.37 0 001.556 20.388c.94.804 3.036 2.055 3.075 2.118-1.377 3.496-5.776 4.453-5.776 4.453s5.814 3.636 13.623 4.58c2.07.256 4.27.32 6.548.077 3.614-.293 7.216-2.207 9.956-4.9 5.93-5.843 5.982-15.36.09-21.255zm-2.675 18.935c-2.213 2.169-5.519 3.546-8.066 3.738-1.801.178-3.73.204-5.583-.026-2.727-.331-4.695-1.084-6.625-1.811.978-.945 1.955-2.246 2.354-3.369a2.594 2.594 0 00-.077-2.054 10.984 10.984 0 012.238-12.682c2.47-2.411 5.866-3.547 9.314-3.126a11.215 11.215 0 016.638 3.215c4.374 4.39 4.22 11.815-.193 16.115z" /></symbol><symbol viewBox="0 0 30 30" id="sun"><path fill-rule="evenodd" fill="#FAD528" d="M28.999 16h-2a1 1 0 010-2h2a1 1 0 110 2zm-5.514 8.899l-.708-.707a1 1 0 011.415-1.414l.707.707a.999.999 0 11-1.414 1.414zm.707-17.678a1 1 0 11-1.415-1.414l.708-.707a.999.999 0 111.414 1.414l-.707.707zM14.999 24A9 9 0 1115 5.999 9 9 0 0115 24zm0-20a1 1 0 01-1-1V1a1 1 0 112 0v2a1 1 0 01-1 1zM5.807 7.221L5.1 6.514A.999.999 0 116.514 5.1l.707.707a.999.999 0 11-1.414 1.414zM2.999 16h-2a1 1 0 010-2h2a1 1 0 110 2zm2.808 6.778a.999.999 0 111.414 1.414l-.707.707A1 1 0 015.1 23.485l.707-.707zM14.999 26a1 1 0 011 1v2a1 1 0 11-2 0v-2a1 1 0 011-1z" /></symbol><symbol viewBox="0 0 30 30" id="sun-hover"><style>#sun-hover .st0{enable-background:new}</style><g id="sun-hover_Эллипс_563_1_" class="st0"><path d="M15 4c.6 0 1-.4 1-1V1c0-.6-.4-1-1-1s-1 .4-1 1v2c0 .6.4 1 1 1zm14 10h-2c-.6 0-1 .4-1 1s.4 1 1 1h2c.6 0 1-.4 1-1s-.4-1-1-1zm-5.5-8.9l-.7.7c-.4.4-.4 1 0 1.4.4.4 1 .4 1.4 0l.7-.7c.4-.4.4-1 0-1.4-.4-.4-1-.4-1.4 0zm-5 1.9c-3 0-5.5 2.5-5.5 5.5s2.5 5.5 5.5 5.5 5.5-2.5 5.5-5.5S21.5 7 18.5 7z" fill-rule="evenodd" clip-rule="evenodd" fill="#fad528" id="sun-hover_Эллипс_563" /></g><g id="sun-hover_moon_1_" class="st0"><path d="M15 26c-.6 0-1 .4-1 1v2c0 .6.4 1 1 1s1-.4 1-1v-2c0-.6-.4-1-1-1zM3 14H1c-.6 0-1 .4-1 1s.4 1 1 1h2c.6 0 1-.4 1-1s-.4-1-1-1zm21.9 9.5l-.7-.7c-.4-.4-1-.4-1.4 0-.4.4-.4 1 0 1.4l.7.7c.4.4 1 .4 1.4 0 .4-.4.4-1 0-1.4zm-19.1-.7l-.7.7c-.4.4-.4 1 0 1.4.4.4 1 .4 1.4 0l.7-.7c.4-.4.4-1 0-1.4-.4-.4-1-.4-1.4 0zm0-15.6c.4.4 1 .4 1.4 0 .4-.4.4-1 0-1.4l-.7-.7c-.4-.4-1-.4-1.4 0-.4.4-.4 1 0 1.4l.7.7zm17.4 10.2c-1.4 1.3-3.4 2.1-5.6 1.8-3.1-.4-5.6-2.8-5.9-5.9-.3-2.8 1.1-5.3 3.4-6.5.4-.2.2-.8-.3-.8-.6 0-1.1.1-1.7.2-3.9 1-6.8 4.3-7.1 8.2-.3 5.2 3.9 9.6 9.2 9.6 4 0 7.5-2.5 8.7-6.1.2-.4-.4-.8-.7-.5z" fill-rule="evenodd" clip-rule="evenodd" fill="#5f6278" id="sun-hover_moon" /></g></symbol><symbol viewBox="0 0 18 18" id="tag"><path fill-rule="evenodd" fill="currentColor" d="M17.6 11.3c.6-.6.6-1.5 0-2l-6.7-6.5c-.3-.4-.9-.6-1.3-.6H5.5c-.8.1-1.6.7-1.6 1.6-.1 0-.3.1-.5.2-.9.3-1.8 1-2.5 1.5-1 1-.9 1.8-.7 2.3.1.3.6.9 2 .9.6 0 1.2-.1 1.9-.2 0 .3.1.6.3.7l6.7 6.7c.6.6 1.5.6 2 0l4.5-4.6zM8 6.1c-.5.5-1.1.5-1.6 0L6.3 6c-.5.3-1 .7-1.6.9-2 .9-3.4.7-3.5.3 0-.1 0-.5.5-.9.6-.6 1.2-1 2.1-1.4h.1v1.6c.2-.1.3-.2.6-.2.6-.2 1.1-.6 1.6-.8 0-.3.1-.7.3-1C6.9 4 7.5 4 8 4.5c.4.5.4 1.2 0 1.6z" /></symbol><symbol viewBox="0 0 18 18" id="tag-outline"><path fill-rule="evenodd" fill="currentColor" d="M17.6 9.4L11 2.7c-.4-.4-.9-.5-1.4-.5h-4c-.9.1-1.6.7-1.6 1.5-.1.1-.3.2-.6.3-1 .5-1.9 1-2.5 1.6-1 1-.9 1.8-.7 2.2s.6 1 2.1 1c.5 0 1.3-.1 1.9-.3 0 .2.2.5.4.6l6.7 6.8c.5.5 1.4.5 2 0l4.4-4.5c.5-.6.5-1.5-.1-2zM1.3 7.2c-.1-.1 0-.5.5-.9.5-.5 1.3-1 2.2-1.4v1.6c.2 0 .4-.1.5-.2.5-.2 1.1-.5 1.5-.8 0-.4.1-.7.4-1C6.9 4 7.6 4 8 4.5c.5.5.5 1.2.2 1.6-.5.4-1.2.4-1.6 0L6.5 6c-.5.3-1 .6-1.7.9-2 .8-3.4.5-3.5.3zm15.6 3.5l-4.4 4.5c-.1.1-.2.1-.3.1s-.2 0-.3-.1L5.3 8.4 5 8.1l-.1-.2c.1 0 .2-.1.3-.1l1.2-.6c.3.1.6.2 1 .2.6 0 1.1-.2 1.5-.6.8-.8.7-2.1-.1-3-.4-.4-1-.6-1.5-.6-.6 0-1.1.2-1.5.6-.3.3-.5.7-.6 1.1-.1.1-.1.1-.2.1V3.7c0-.3.3-.5.6-.5h3.9c.3 0 .6.1.7.2l6.7 6.7c.2.2.2.4 0 .6z" /></symbol><symbol class="m-1" viewBox="0 0 448 512" id="telegram"><path fill="currentColor" d="M446.7 98.6l-67.6 318.8c-5.1 22.5-18.4 28.1-37.3 17.5l-103-75.9-49.7 47.8c-5.5 5.5-10.1 10.1-20.7 10.1l7.4-104.9 190.9-172.5c8.3-7.4-1.8-11.5-12.9-4.1L117.8 284 16.2 252.2c-22.1-6.9-22.5-22.1 4.6-32.7L418.2 66.4c18.4-6.9 34.5 4.1 28.5 32.2z" /></symbol><symbol viewBox="0 0 43 39" id="transaction"><switch><g><path d="M42.1 9.2c-.8-.3-1.7 0-2 .8l-.8 2c-2.9-7.2-10-12-18-12C12.2 0 4.4 6.1 2.4 14.9c-.2.8.3 1.6 1.1 1.8.8.2 1.6-.3 1.8-1.1C7 8.2 13.5 3 21.3 3c6.8 0 12.6 4 15.1 9.9l-1.7-.7c-.8-.3-1.7 0-2 .8-.3.8 0 1.7.8 2l5.2 2.2c.2.1.4.1.6.1.2 0 .4 0 .6-.1.4-.1.6-.4.8-.8l2.2-5.1c.3-.9 0-1.8-.8-2.1zm-2.7 13.1c-.8-.2-1.6.3-1.8 1.1-1.7 7.4-8.3 12.7-16 12.7-6.8 0-12.6-4-15.1-10l1.8.8c.8.3 1.7 0 2-.8.3-.8 0-1.7-.8-2l-5.2-2.2c-.8-.3-1.7 0-2 .8L.1 27.8c-.3.8 0 1.7.8 2 .2.1.4.1.6.1.6 0 1.2-.4 1.4-1l.8-1.8C6.6 34.3 13.6 39 21.6 39c9.2 0 16.9-6.1 18.9-14.9.2-.8-.3-1.6-1.1-1.8z" fill-rule="evenodd" clip-rule="evenodd" fill="#037cff" opacity=".4" /></g></switch></symbol><symbol class="m-1" viewBox="0 0 512 512" id="twitter"><path fill="currentColor" d="M459.37 151.716c.325 4.548.325 9.097.325 13.645 0 138.72-105.583 298.558-298.558 298.558-59.452 0-114.68-17.219-161.137-47.106 8.447.974 16.568 1.299 25.34 1.299 49.055 0 94.213-16.568 130.274-44.832-46.132-.975-84.792-31.188-98.112-72.772 6.498.974 12.995 1.624 19.818 1.624 9.421 0 18.843-1.3 27.614-3.573-48.081-9.747-84.143-51.98-84.143-102.985v-1.299c13.969 7.797 30.214 12.67 47.431 13.319-28.264-18.843-46.781-51.005-46.781-87.391 0-19.492 5.197-37.36 14.294-52.954 51.655 63.675 129.3 105.258 216.365 109.807-1.624-7.797-2.599-15.918-2.599-24.04 0-57.828 46.782-104.934 104.934-104.934 30.213 0 57.502 12.67 76.67 33.137 23.715-4.548 46.456-13.32 66.599-25.34-7.798 24.366-24.366 44.833-46.132 57.827 21.117-2.273 41.584-8.122 60.426-16.243-14.292 20.791-32.161 39.308-52.628 54.253z" /></symbol><symbol viewBox="0 0 16 17" id="verified"><path fill-rule="evenodd" fill="currentColor" d="M7.1 14.88H3.17c-.6 0-.92-1.14-.83-1.88.21-2.7 1.88-4.03 3.24-5.3a3.837 3.837 0 003.27-.12c.02.01.03.02.05.04.5.47 1 .95 1.46 1.49.1.12.15.17.3.38.15.2 1.71-.93 1.27-1.45-.16-.16-.22-.26-.33-.38-.44-.5-.88-.92-1.29-1.32.45-.64.72-1.42.72-2.26a3.93 3.93 0 00-7.86 0c0 .93.34 1.78.88 2.45C2.5 8.03.22 10.51.22 13.83c0 1.89.91 3.01 1.97 3.01h3.93c.91.01 1.53-1.96.98-1.96zm0-12.76c1.08 0 1.96.88 1.96 1.96S8.18 6.04 7.1 6.04s-1.96-.88-1.96-1.96.88-1.96 1.96-1.96zm8.69 8.67l-.69-.67a.476.476 0 00-.34-.14.46.46 0 00-.34.14l-3.32 3.26-1.5-1.47c-.09-.09-.21-.14-.34-.14s-.25.05-.34.14l-.69.67a.46.46 0 00-.14.34c0 .13.05.24.14.34l1.83 1.79.69.67c.09.09.21.14.34.14s.25-.05.34-.14l.69-.67 3.67-3.59c.09-.09.14-.2.14-.34a.388.388 0 00-.14-.33z" /></symbol><symbol class="m-1" viewBox="0 0 576 512" id="youtube"><path fill="currentColor" d="M549.655 124.083c-6.281-23.65-24.787-42.276-48.284-48.597C458.781 64 288 64 288 64S117.22 64 74.629 75.486c-23.497 6.322-42.003 24.947-48.284 48.597-11.412 42.867-11.412 132.305-11.412 132.305s0 89.438 11.412 132.305c6.281 23.65 24.787 41.5 48.284 47.821C117.22 448 288 448 288 448s170.78 0 213.371-11.486c23.497-6.321 42.003-24.171 48.284-47.821 11.412-42.867 11.412-132.305 11.412-132.305s0-89.438-11.412-132.305zm-317.51 213.508V175.185l142.739 81.205-142.739 81.201z" /></symbol></defs></svg>